<svg width="62" height="48" viewBox="0 0 62 48" fill="none" xmlns="http://www.w3.org/2000/svg">
    <path d="M6.0357 23.5739C5.25758 22.4718 4.47946 21.3698 3.75041 20.2729C3.02135 19.176 2.30805 17.9275 1.64906 16.6337C1.31956 15.9867 1.33875 15.325 1.60326 14.6887C1.87302 14.002 2.42665 13.4469 3.22034 12.9677C4.01403 12.4886 4.77622 12.3125 5.4631 12.3839C6.14998 12.4553 6.70722 12.8196 7.09103 13.4211C7.8534 14.6747 8.46858 15.9129 9.03469 17.1461C9.60081 18.3792 10.1179 19.6073 10.6297 20.8858C10.8663 21.4721 10.9014 22.0884 10.6965 22.6287C10.5406 23.1741 10.0413 23.6839 9.3562 24.0722C8.61682 24.5059 8.00707 24.6467 7.42357 24.535C6.88913 24.4284 6.43001 24.0743 6.0357 23.5739ZM8.54729 28.9917C8.13017 28.2335 8.01267 27.4554 8.28768 26.7182C8.51362 25.9758 9.07251 25.3702 9.8662 24.891C10.6599 24.4119 11.4711 24.241 12.1966 24.4185C12.922 24.596 13.5178 25.0664 13.935 25.8245C14.0997 26.148 14.2154 26.4664 14.2277 26.825C14.24 27.1837 14.1594 27.4817 14.0736 27.8302C13.9878 28.1786 13.7601 28.4613 13.478 28.7894C13.2012 29.067 12.8753 29.3394 12.5004 29.6068C12.1307 29.8236 11.7172 29.9849 11.3632 30.0502C10.9602 30.1104 10.6115 30.1252 10.2681 30.0896C9.92466 30.0539 9.64078 29.9222 9.36216 29.7401C8.93635 29.5427 8.71204 29.3151 8.54729 28.9917Z" fill="#6ECEC9" stroke="white" stroke-width="1.06"/>
    <path d="M51.7186 8.37669C51.7186 8.26569 51.7582 8.15468 51.8374 7.96967C51.877 7.82166 51.9562 7.67366 52.075 7.48865C52.1938 7.34064 52.3126 7.15563 52.4711 7.00763C52.6295 6.85962 52.8275 6.71161 53.0255 6.60061C53.6196 6.30459 54.2929 6.08258 55.085 5.97158C55.3226 5.93458 55.5207 5.89757 55.6791 5.82357C55.8375 5.74957 55.9563 5.60156 56.0355 5.37955C56.1147 5.19454 56.0751 5.08354 55.9959 5.00953C55.9167 4.93553 55.7979 4.86153 55.6395 4.82452C55.283 4.71352 55.0454 4.78752 54.9266 5.04653C54.8474 5.15754 54.7286 5.30555 54.5305 5.37955C54.3721 5.49056 54.1345 5.56456 53.8969 5.60156C53.6592 5.63856 53.382 5.67556 53.0651 5.67556C52.7483 5.67556 52.4315 5.60156 52.1146 5.49056C51.679 5.34255 51.3621 5.19454 51.0849 5.00953C50.8076 4.82452 50.6492 4.60251 50.4908 4.3805C50.372 4.15849 50.2928 3.93648 50.2928 3.71447C50.2928 3.49246 50.3324 3.23345 50.4116 3.01144C50.57 2.53042 50.8869 2.1234 51.2433 1.82738C51.6394 1.49437 52.1146 1.27236 52.6691 1.16135C53.2236 1.01335 53.8572 0.976344 54.5701 1.01335C55.283 1.05035 56.0355 1.19835 56.8672 1.49437C57.7386 1.79038 58.4911 2.0864 59.0851 2.45641C59.6792 2.82643 60.1149 3.23345 60.4317 3.64047C60.7486 4.04749 60.9466 4.49151 60.9862 4.97253C61.0258 5.41655 60.9862 5.89757 60.7882 6.3786C60.3525 7.59965 59.5604 8.41369 58.4515 8.74671C58.3326 8.78371 58.1742 8.82071 58.0158 8.85771C57.8574 8.89471 57.699 8.93172 57.5405 9.00572C57.3821 9.04272 57.2237 9.07972 57.1049 9.11672C56.9861 9.15373 56.8672 9.19073 56.788 9.22773C56.7484 9.26473 56.6692 9.26473 56.6296 9.33874C56.5504 9.37574 56.5108 9.44974 56.4316 9.48674C56.3524 9.52374 56.2732 9.59775 56.2336 9.63475C56.1544 9.67175 56.1147 9.74576 56.1147 9.78276C55.7979 10.1158 55.4415 10.3008 55.0058 10.4118C54.5701 10.5228 54.0157 10.4488 53.4216 10.2638C52.7879 10.0788 52.3522 9.78276 52.0354 9.44974C51.7978 9.11672 51.679 8.74671 51.7186 8.37669ZM50.0947 12.2619C50.3324 11.6328 50.7284 11.1888 51.2829 10.9668C51.8374 10.7448 52.5107 10.7448 53.2236 10.9668C53.9761 11.1888 54.4909 11.5958 54.7682 12.0769C55.085 12.5949 55.085 13.1499 54.887 13.7789C54.8078 14.038 54.6494 14.26 54.4513 14.445C54.2533 14.63 54.0157 14.741 53.7384 14.852C53.4612 14.926 53.1444 15 52.8275 15C52.5107 15 52.1542 14.926 51.7978 14.815C51.4413 14.704 51.1641 14.556 50.8869 14.371C50.6492 14.186 50.4116 14.001 50.2928 13.7419C50.1344 13.5199 50.0551 13.2609 50.0155 13.0389C49.9759 12.7799 50.0155 12.5209 50.0947 12.2619Z" fill="#6ECEC9" stroke="white" stroke-width="1.06"/>
    <rect x="14" y="7" width="34" height="29" fill="white"/>
    <mask id="path-4-outside-1_28_781" maskUnits="userSpaceOnUse" x="8.04688" y="-0.088796" width="42.9904" height="24.8627" fill="black">
        <rect fill="white" x="8.04688" y="-0.088796" width="42.9904" height="24.8627"/>
        <path d="M27.5798 19.9221C27.5606 20.3483 27.4321 20.6829 27.1943 20.9258C26.9565 21.1687 26.6444 21.2815 26.2582 21.2641L23.5409 21.142C23.1546 21.1246 22.854 20.9843 22.6389 20.721C22.4238 20.4578 22.3259 20.113 22.345 19.6868L23.0168 4.74189C23.0359 4.31565 23.1644 3.98108 23.4022 3.73818C23.6401 3.49528 23.9521 3.38251 24.3384 3.39987L27.0556 3.52201C27.4419 3.53937 27.7426 3.67968 27.9576 3.94294C28.1727 4.20619 28.2707 4.55094 28.2515 4.97717L27.5798 19.9221ZM21.9295 16.9053C21.8801 17.4103 21.7714 17.8992 21.6033 18.3722C21.4353 18.8451 21.2027 19.2684 20.9056 19.6421C20.6085 20.0158 20.2481 20.3133 19.8244 20.5345C19.4135 20.7696 18.9473 20.8955 18.4261 20.9121C18.0253 20.9207 17.6581 20.9243 17.3245 20.9226C16.9903 20.9343 16.6634 20.9329 16.3437 20.9186C16.0373 20.9048 15.7182 20.8771 15.3864 20.8355C15.054 20.8072 14.6886 20.7708 14.2903 20.7262C13.7593 20.6623 13.2863 20.4942 12.8715 20.222C12.456 19.963 12.1038 19.6336 11.8148 19.2335C11.5391 18.8341 11.3255 18.3907 11.1739 17.9034C11.0223 17.4161 10.9512 16.9191 10.9606 16.4123C10.9655 15.4115 10.9712 14.5442 10.9774 13.8104C10.9837 13.0766 11.0021 12.3701 11.0327 11.6908C11.0632 11.0115 11.1083 10.3061 11.1678 9.57471C11.2274 8.84332 11.2996 7.97902 11.3845 6.98183C11.4205 6.47627 11.5359 5.98763 11.7306 5.51589C11.9254 5.04416 12.1779 4.62174 12.4883 4.24864C12.812 3.87613 13.1924 3.57958 13.6294 3.35898C14.067 3.12506 14.5531 3.00009 15.0877 2.98408C15.4885 2.9754 15.8557 2.97189 16.1893 2.97353C16.5229 2.97518 16.8429 2.98289 17.1492 2.99666C17.4689 3.01103 17.7949 3.03236 18.1273 3.06064C18.4597 3.08893 18.8251 3.12537 19.2235 3.16997C19.7412 3.23328 20.1942 3.40046 20.5824 3.6715C20.9845 3.92981 21.3168 4.2584 21.5791 4.65725C21.8421 5.04278 22.036 5.47859 22.161 5.96469C22.286 6.45079 22.3501 6.95418 22.3534 7.47485C22.3485 8.47564 22.3428 9.34293 22.3366 10.0767C22.3303 10.8105 22.3119 11.5171 22.2813 12.1964C22.2508 12.8757 22.2057 13.581 22.1462 14.3124C22.0866 15.0438 22.0144 15.9081 21.9295 16.9053ZM16.7563 16.1923C17.0172 14.8427 17.1805 13.4353 17.2464 11.9701C17.3123 10.5049 17.2758 9.08849 17.1371 7.72088L16.5577 7.69484C16.6831 9.06185 16.7129 10.4779 16.647 11.9431C16.5811 13.4083 16.4244 14.816 16.1769 16.1663L16.7563 16.1923ZM41.2462 10.9066C41.1883 11.3044 41.071 11.6862 40.8944 12.052C40.7311 12.4184 40.5163 12.7424 40.2501 13.0241C39.9844 13.2924 39.6676 13.5117 39.2996 13.682C38.9455 13.8396 38.5614 13.9225 38.1473 13.9305C37.2652 13.9576 36.4511 13.9544 35.7052 13.9209C34.9593 13.8874 34.1483 13.8175 33.2722 13.7114C32.8471 13.6656 32.4654 13.5484 32.1268 13.3596C31.7889 13.1576 31.4997 12.911 31.2592 12.6199C31.0193 12.3155 30.8278 11.9732 30.6847 11.5931C30.5549 11.2136 30.4791 10.8231 30.4571 10.4217C30.4192 9.77935 30.4125 9.18512 30.4371 8.63901C30.4622 8.07957 30.5225 7.48167 30.6178 6.84531C30.7221 6.00915 31.0475 5.30305 31.5939 4.727C32.1537 4.15156 32.8613 3.84969 33.7167 3.82141C34.5988 3.79432 35.4128 3.79754 36.1587 3.83107C36.9047 3.8646 37.7157 3.93442 38.5918 4.04053C39.0035 4.08573 39.3783 4.20935 39.7163 4.4114C40.0681 4.60072 40.3643 4.84093 40.6048 5.13202C40.8453 5.42312 41.0305 5.75843 41.1602 6.13798C41.3033 6.51812 41.3855 6.91554 41.4069 7.33026C41.4448 7.9726 41.4511 8.5735 41.426 9.13293C41.4014 9.67905 41.3415 10.2703 41.2462 10.9066ZM46.3286 20.7648C46.3095 21.191 46.181 21.5256 45.9432 21.7685C45.7054 22.0114 45.3933 22.1242 45.0071 22.1068L41.6504 21.9559C41.2642 21.9386 40.9635 21.7983 40.7484 21.535C40.5334 21.2718 40.4354 20.927 40.4546 20.5008L40.5156 19.1421L31.3449 18.7299C30.9586 18.7126 30.658 18.5723 30.4429 18.309C30.2278 18.0458 30.1299 17.701 30.149 17.2748L30.2308 15.4566C30.2499 15.0304 30.3784 14.6958 30.6162 14.4529C30.854 14.21 31.1661 14.0972 31.5523 14.1146L45.3384 14.7343C45.7247 14.7516 46.0254 14.8919 46.2404 15.1552C46.4555 15.4184 46.5535 15.7632 46.5343 16.1894L46.3286 20.7648ZM47.9643 11.9894C47.9553 12.1892 47.8819 12.3394 47.7439 12.44C47.6198 12.5278 47.4761 12.6081 47.3126 12.6808C47.1498 12.7402 46.9994 12.8202 46.8614 12.9208C46.7373 13.0087 46.6708 13.1525 46.6618 13.3523C46.6486 13.6453 46.5583 13.8748 46.3906 14.0408C46.223 14.2068 46.006 14.2838 45.7396 14.2718L42.9025 14.1443C42.5162 14.1269 42.2155 13.9866 42.0005 13.7234C41.7854 13.4601 41.6874 13.1154 41.7066 12.6891L42.0254 5.59628C42.0446 5.17004 42.173 4.83547 42.4109 4.59257C42.6487 4.34967 42.9607 4.2369 43.347 4.25427L46.1442 4.37999C46.4106 4.39197 46.6265 4.48843 46.7918 4.66937C46.9572 4.85031 47.0333 5.0873 47.0201 5.38034C47.0106 5.59345 47.0633 5.75599 47.1784 5.86793C47.3074 5.96716 47.45 6.06032 47.6063 6.14743C47.7625 6.23453 47.8982 6.33406 48.0133 6.44601C48.1417 6.55855 48.2014 6.71472 48.1924 6.91452L48.1529 7.79363C48.1439 7.99343 48.0705 8.14362 47.9325 8.24419C47.8084 8.33204 47.6646 8.41233 47.5012 8.48507C47.3384 8.54448 47.188 8.62448 47.05 8.72505C46.9259 8.8129 46.8591 8.96338 46.8495 9.1765L46.8342 9.51616C46.8247 9.72928 46.8774 9.89181 46.9925 10.0038C47.1209 10.1163 47.2629 10.2228 47.4186 10.3232C47.5742 10.4236 47.7096 10.5298 47.8247 10.6418C47.9531 10.7543 48.0128 10.9105 48.0038 11.1103L47.9643 11.9894ZM36.1693 10.278C36.4243 9.35523 36.4662 8.42284 36.295 7.48087L35.6956 7.45393C35.8668 8.3959 35.8249 9.32829 35.5699 10.2511L36.1693 10.278Z"/>
    </mask>
    <path d="M27.5798 19.9221C27.5606 20.3483 27.4321 20.6829 27.1943 20.9258C26.9565 21.1687 26.6444 21.2815 26.2582 21.2641L23.5409 21.142C23.1546 21.1246 22.854 20.9843 22.6389 20.721C22.4238 20.4578 22.3259 20.113 22.345 19.6868L23.0168 4.74189C23.0359 4.31565 23.1644 3.98108 23.4022 3.73818C23.6401 3.49528 23.9521 3.38251 24.3384 3.39987L27.0556 3.52201C27.4419 3.53937 27.7426 3.67968 27.9576 3.94294C28.1727 4.20619 28.2707 4.55094 28.2515 4.97717L27.5798 19.9221ZM21.9295 16.9053C21.8801 17.4103 21.7714 17.8992 21.6033 18.3722C21.4353 18.8451 21.2027 19.2684 20.9056 19.6421C20.6085 20.0158 20.2481 20.3133 19.8244 20.5345C19.4135 20.7696 18.9473 20.8955 18.4261 20.9121C18.0253 20.9207 17.6581 20.9243 17.3245 20.9226C16.9903 20.9343 16.6634 20.9329 16.3437 20.9186C16.0373 20.9048 15.7182 20.8771 15.3864 20.8355C15.054 20.8072 14.6886 20.7708 14.2903 20.7262C13.7593 20.6623 13.2863 20.4942 12.8715 20.222C12.456 19.963 12.1038 19.6336 11.8148 19.2335C11.5391 18.8341 11.3255 18.3907 11.1739 17.9034C11.0223 17.4161 10.9512 16.9191 10.9606 16.4123C10.9655 15.4115 10.9712 14.5442 10.9774 13.8104C10.9837 13.0766 11.0021 12.3701 11.0327 11.6908C11.0632 11.0115 11.1083 10.3061 11.1678 9.57471C11.2274 8.84332 11.2996 7.97902 11.3845 6.98183C11.4205 6.47627 11.5359 5.98763 11.7306 5.51589C11.9254 5.04416 12.1779 4.62174 12.4883 4.24864C12.812 3.87613 13.1924 3.57958 13.6294 3.35898C14.067 3.12506 14.5531 3.00009 15.0877 2.98408C15.4885 2.9754 15.8557 2.97189 16.1893 2.97353C16.5229 2.97518 16.8429 2.98289 17.1492 2.99666C17.4689 3.01103 17.7949 3.03236 18.1273 3.06064C18.4597 3.08893 18.8251 3.12537 19.2235 3.16997C19.7412 3.23328 20.1942 3.40046 20.5824 3.6715C20.9845 3.92981 21.3168 4.2584 21.5791 4.65725C21.8421 5.04278 22.036 5.47859 22.161 5.96469C22.286 6.45079 22.3501 6.95418 22.3534 7.47485C22.3485 8.47564 22.3428 9.34293 22.3366 10.0767C22.3303 10.8105 22.3119 11.5171 22.2813 12.1964C22.2508 12.8757 22.2057 13.581 22.1462 14.3124C22.0866 15.0438 22.0144 15.9081 21.9295 16.9053ZM16.7563 16.1923C17.0172 14.8427 17.1805 13.4353 17.2464 11.9701C17.3123 10.5049 17.2758 9.08849 17.1371 7.72088L16.5577 7.69484C16.6831 9.06185 16.7129 10.4779 16.647 11.9431C16.5811 13.4083 16.4244 14.816 16.1769 16.1663L16.7563 16.1923ZM41.2462 10.9066C41.1883 11.3044 41.071 11.6862 40.8944 12.052C40.7311 12.4184 40.5163 12.7424 40.2501 13.0241C39.9844 13.2924 39.6676 13.5117 39.2996 13.682C38.9455 13.8396 38.5614 13.9225 38.1473 13.9305C37.2652 13.9576 36.4511 13.9544 35.7052 13.9209C34.9593 13.8874 34.1483 13.8175 33.2722 13.7114C32.8471 13.6656 32.4654 13.5484 32.1268 13.3596C31.7889 13.1576 31.4997 12.911 31.2592 12.6199C31.0193 12.3155 30.8278 11.9732 30.6847 11.5931C30.5549 11.2136 30.4791 10.8231 30.4571 10.4217C30.4192 9.77935 30.4125 9.18512 30.4371 8.63901C30.4622 8.07957 30.5225 7.48167 30.6178 6.84531C30.7221 6.00915 31.0475 5.30305 31.5939 4.727C32.1537 4.15156 32.8613 3.84969 33.7167 3.82141C34.5988 3.79432 35.4128 3.79754 36.1587 3.83107C36.9047 3.8646 37.7157 3.93442 38.5918 4.04053C39.0035 4.08573 39.3783 4.20935 39.7163 4.4114C40.0681 4.60072 40.3643 4.84093 40.6048 5.13202C40.8453 5.42312 41.0305 5.75843 41.1602 6.13798C41.3033 6.51812 41.3855 6.91554 41.4069 7.33026C41.4448 7.9726 41.4511 8.5735 41.426 9.13293C41.4014 9.67905 41.3415 10.2703 41.2462 10.9066ZM46.3286 20.7648C46.3095 21.191 46.181 21.5256 45.9432 21.7685C45.7054 22.0114 45.3933 22.1242 45.0071 22.1068L41.6504 21.9559C41.2642 21.9386 40.9635 21.7983 40.7484 21.535C40.5334 21.2718 40.4354 20.927 40.4546 20.5008L40.5156 19.1421L31.3449 18.7299C30.9586 18.7126 30.658 18.5723 30.4429 18.309C30.2278 18.0458 30.1299 17.701 30.149 17.2748L30.2308 15.4566C30.2499 15.0304 30.3784 14.6958 30.6162 14.4529C30.854 14.21 31.1661 14.0972 31.5523 14.1146L45.3384 14.7343C45.7247 14.7516 46.0254 14.8919 46.2404 15.1552C46.4555 15.4184 46.5535 15.7632 46.5343 16.1894L46.3286 20.7648ZM47.9643 11.9894C47.9553 12.1892 47.8819 12.3394 47.7439 12.44C47.6198 12.5278 47.4761 12.6081 47.3126 12.6808C47.1498 12.7402 46.9994 12.8202 46.8614 12.9208C46.7373 13.0087 46.6708 13.1525 46.6618 13.3523C46.6486 13.6453 46.5583 13.8748 46.3906 14.0408C46.223 14.2068 46.006 14.2838 45.7396 14.2718L42.9025 14.1443C42.5162 14.1269 42.2155 13.9866 42.0005 13.7234C41.7854 13.4601 41.6874 13.1154 41.7066 12.6891L42.0254 5.59628C42.0446 5.17004 42.173 4.83547 42.4109 4.59257C42.6487 4.34967 42.9607 4.2369 43.347 4.25427L46.1442 4.37999C46.4106 4.39197 46.6265 4.48843 46.7918 4.66937C46.9572 4.85031 47.0333 5.0873 47.0201 5.38034C47.0106 5.59345 47.0633 5.75599 47.1784 5.86793C47.3074 5.96716 47.45 6.06032 47.6063 6.14743C47.7625 6.23453 47.8982 6.33406 48.0133 6.44601C48.1417 6.55855 48.2014 6.71472 48.1924 6.91452L48.1529 7.79363C48.1439 7.99343 48.0705 8.14362 47.9325 8.24419C47.8084 8.33204 47.6646 8.41233 47.5012 8.48507C47.3384 8.54448 47.188 8.62448 47.05 8.72505C46.9259 8.8129 46.8591 8.96338 46.8495 9.1765L46.8342 9.51616C46.8247 9.72928 46.8774 9.89181 46.9925 10.0038C47.1209 10.1163 47.2629 10.2228 47.4186 10.3232C47.5742 10.4236 47.7096 10.5298 47.8247 10.6418C47.9531 10.7543 48.0128 10.9105 48.0038 11.1103L47.9643 11.9894ZM36.1693 10.278C36.4243 9.35523 36.4662 8.42284 36.295 7.48087L35.6956 7.45393C35.8668 8.3959 35.8249 9.32829 35.5699 10.2511L36.1693 10.278Z" fill="#6ECEC9"/>
    <path d="M27.1943 20.9258L28.6234 22.325L28.6234 22.325L27.1943 20.9258ZM22.6389 20.721L21.09 21.9864L21.09 21.9864L22.6389 20.721ZM23.4022 3.73818L21.9731 2.33901L21.9731 2.33901L23.4022 3.73818ZM27.9576 3.94294L29.5065 2.67762L29.5065 2.67762L27.9576 3.94294ZM21.9295 16.9053L23.92 17.1L23.9212 17.0875L23.9223 17.0749L21.9295 16.9053ZM21.6033 18.3722L23.4879 19.0419L21.6033 18.3722ZM20.9056 19.6421L19.34 18.3975L20.9056 19.6421ZM19.8244 20.5345L18.8988 18.7615L18.8647 18.7794L18.8313 18.7985L19.8244 20.5345ZM18.4261 20.9121L18.4694 22.9116L18.4796 22.9114L18.4898 22.911L18.4261 20.9121ZM17.3245 20.9226L17.3344 18.9226L17.2945 18.9224L17.2547 18.9238L17.3245 20.9226ZM15.3864 20.8355L15.6353 18.851L15.5957 18.8461L15.556 18.8427L15.3864 20.8355ZM14.2903 20.7262L14.0513 22.7118L14.0595 22.7128L14.0677 22.7138L14.2903 20.7262ZM12.8715 20.222L13.9687 18.5498L13.9491 18.537L13.9293 18.5246L12.8715 20.222ZM11.8148 19.2335L10.1687 20.3695L10.181 20.3872L10.1936 20.4047L11.8148 19.2335ZM11.1739 17.9034L9.26414 18.4975L11.1739 17.9034ZM10.9606 16.4123L12.9602 16.4495L12.9605 16.4359L12.9606 16.4222L10.9606 16.4123ZM11.3845 6.98183L13.3773 7.15142L13.3784 7.1378L13.3794 7.12416L11.3845 6.98183ZM12.4883 4.24864L10.9787 2.93674L10.9646 2.95299L10.9508 2.96953L12.4883 4.24864ZM13.6294 3.35898L14.5307 5.1444L14.5516 5.13384L14.5722 5.1228L13.6294 3.35898ZM15.0877 2.98408L15.0444 0.984548L15.0361 0.984727L15.0278 0.984976L15.0877 2.98408ZM16.1893 2.97353L16.1794 4.97351L16.1794 4.97351L16.1893 2.97353ZM18.1273 3.06064L17.9578 5.05344L17.9578 5.05344L18.1273 3.06064ZM19.2235 3.16997L19.4663 1.18476L19.4562 1.18353L19.446 1.18239L19.2235 3.16997ZM20.5824 3.6715L19.4375 5.31138L19.4691 5.33342L19.5015 5.35424L20.5824 3.6715ZM21.5791 4.65725L19.9082 5.75635L19.9174 5.77035L19.9269 5.78419L21.5791 4.65725ZM22.3534 7.47485L24.3534 7.48473L24.3534 7.47347L24.3534 7.46221L22.3534 7.47485ZM22.3366 10.0767L24.3365 10.0939L24.3365 10.0939L22.3366 10.0767ZM22.1462 14.3124L24.1396 14.4748L24.1396 14.4748L22.1462 14.3124ZM16.7563 16.1923L16.6665 18.1903L18.3922 18.2679L18.72 16.5719L16.7563 16.1923ZM17.1371 7.72088L19.1269 7.51903L18.9525 5.80046L17.2269 5.7229L17.1371 7.72088ZM16.5577 7.69484L16.6475 5.69685L14.3565 5.59388L14.566 7.87755L16.5577 7.69484ZM16.1769 16.1663L14.2097 15.8056L13.7962 18.0613L16.0871 18.1643L16.1769 16.1663ZM25.5818 19.8323C25.5801 19.8704 25.5761 19.8431 25.602 19.7757C25.6302 19.7022 25.6828 19.6108 25.7652 19.5266L28.6234 22.325C29.2868 21.6473 29.5423 20.7996 29.5777 20.0119L25.5818 19.8323ZM25.7652 19.5266C25.8514 19.4386 25.9683 19.36 26.1022 19.3116C26.2298 19.2655 26.3221 19.265 26.348 19.2661L26.1684 23.2621C27.0365 23.3011 27.9307 23.0325 28.6234 22.325L25.7652 19.5266ZM26.348 19.2661L23.6307 19.144L23.4511 23.1399L26.1684 23.2621L26.348 19.2661ZM23.6307 19.144C23.6566 19.1451 23.7485 19.154 23.8715 19.2113C24.0005 19.2715 24.1099 19.3603 24.1878 19.4557L21.09 21.9864C21.7165 22.7532 22.583 23.1009 23.4511 23.1399L23.6307 19.144ZM24.1878 19.4557C24.2623 19.5469 24.3065 19.6427 24.328 19.7184C24.3477 19.7879 24.3413 19.8147 24.343 19.7766L20.3471 19.597C20.3117 20.3847 20.4901 21.2519 21.09 21.9864L24.1878 19.4557ZM24.343 19.7766L25.0148 4.83169L21.0188 4.65208L20.3471 19.597L24.343 19.7766ZM25.0148 4.83169C25.0165 4.79358 25.0205 4.82086 24.9946 4.88829C24.9663 4.96182 24.9137 5.05319 24.8313 5.13735L21.9731 2.33901C21.3097 3.01663 21.0542 3.86439 21.0188 4.65208L25.0148 4.83169ZM24.8313 5.13735C24.7452 5.22535 24.6283 5.30399 24.4944 5.35237C24.3668 5.39849 24.2744 5.39902 24.2486 5.39786L24.4282 1.40189C23.56 1.36287 22.6659 1.63146 21.9731 2.33901L24.8313 5.13735ZM24.2486 5.39786L26.9658 5.51999L27.1454 1.52403L24.4282 1.40189L24.2486 5.39786ZM26.9658 5.51999C26.94 5.51883 26.848 5.51002 26.7251 5.45264C26.5961 5.39244 26.4867 5.30362 26.4088 5.20825L29.5065 2.67762C28.88 1.91077 28.0136 1.56305 27.1454 1.52403L26.9658 5.51999ZM26.4088 5.20825C26.3343 5.11704 26.2901 5.02132 26.2686 4.94556C26.2488 4.87607 26.2552 4.84926 26.2535 4.88737L30.2495 5.06698C30.2849 4.27929 30.1065 3.41203 29.5065 2.67762L26.4088 5.20825ZM26.2535 4.88737L25.5818 19.8323L29.5777 20.0119L30.2495 5.06698L26.2535 4.88737ZM19.939 16.7106C19.9053 17.0553 19.8317 17.3846 19.7188 17.7024L23.4879 19.0419C23.7111 18.4139 23.855 17.7653 23.92 17.1L19.939 16.7106ZM19.7188 17.7024C19.6208 17.9782 19.4929 18.2053 19.34 18.3975L22.4712 20.8867C22.9125 20.3316 23.2497 19.712 23.4879 19.0419L19.7188 17.7024ZM19.34 18.3975C19.2172 18.5521 19.0749 18.6696 18.8988 18.7615L20.75 22.3074C21.4214 21.9569 21.9998 21.4796 22.4712 20.8867L19.34 18.3975ZM18.8313 18.7985C18.732 18.8553 18.5908 18.9058 18.3624 18.9131L18.4898 22.911C19.3039 22.8851 20.095 22.6839 20.8176 22.2705L18.8313 18.7985ZM18.3828 18.9125C17.9963 18.9209 17.6471 18.9242 17.3344 18.9226L17.3146 22.9226C17.669 22.9243 18.0543 22.9206 18.4694 22.9116L18.3828 18.9125ZM17.2547 18.9238C16.9713 18.9337 16.6977 18.9325 16.4335 18.9206L16.2539 22.9165C16.629 22.9334 17.0093 22.9348 17.3943 22.9214L17.2547 18.9238ZM16.4335 18.9206C16.1848 18.9094 15.919 18.8866 15.6353 18.851L15.1376 22.82C15.5175 22.8676 15.8898 22.9002 16.2539 22.9165L16.4335 18.9206ZM15.556 18.8427C15.2444 18.8162 14.8969 18.7816 14.5128 18.7386L14.0677 22.7138C14.4804 22.7599 14.8637 22.7982 15.2169 22.8283L15.556 18.8427ZM14.5292 18.7405C14.2803 18.7105 14.1058 18.6398 13.9687 18.5498L11.7742 21.8941C12.4669 22.3486 13.2382 22.614 14.0513 22.7118L14.5292 18.7405ZM13.9293 18.5246C13.7358 18.404 13.5744 18.2539 13.436 18.0623L10.1936 20.4047C10.6332 21.0132 11.1762 21.5221 11.8137 21.9193L13.9293 18.5246ZM13.4608 18.0975C13.3057 17.8727 13.1783 17.6136 13.0836 17.3092L9.26414 18.4975C9.47266 19.1677 9.77251 19.7954 10.1687 20.3695L13.4608 18.0975ZM13.0836 17.3092C12.9951 17.0248 12.9548 16.7409 12.9602 16.4495L8.96094 16.3751C8.9475 17.0972 9.04943 17.8074 9.26414 18.4975L13.0836 17.3092ZM12.9606 16.4222C12.9655 15.423 12.9711 14.5583 12.9774 13.8276L8.97751 13.7933C8.9712 14.5302 8.96557 15.4 8.96062 16.4024L12.9606 16.4222ZM12.9774 13.8276C12.9835 13.1161 13.0013 12.4339 13.0307 11.7806L9.03469 11.601C9.00299 12.3063 8.98399 13.0372 8.97751 13.7933L12.9774 13.8276ZM13.0307 11.7806C13.06 11.1273 13.1035 10.4462 13.1612 9.73707L9.17443 9.41236C9.11304 10.166 9.06639 10.8956 9.03469 11.601L13.0307 11.7806ZM13.1612 9.73707C13.2205 9.00877 13.2925 8.147 13.3773 7.15142L9.39167 6.81224C9.30668 7.81105 9.23425 8.67787 9.17443 9.41236L13.1612 9.73707ZM13.3794 7.12416C13.4001 6.8335 13.4657 6.55432 13.5794 6.27896L9.88194 4.75282C9.60617 5.42093 9.44095 6.11904 9.38954 6.83949L13.3794 7.12416ZM13.5794 6.27896C13.701 5.98431 13.8511 5.7377 14.0258 5.52774L10.9508 2.96953C10.5047 3.50578 10.1497 4.10401 9.88194 4.75282L13.5794 6.27896ZM13.9979 5.56053C14.1529 5.38219 14.3272 5.24713 14.5307 5.1444L12.7281 1.57356C12.0576 1.91202 11.4712 2.37007 10.9787 2.93674L13.9979 5.56053ZM14.5722 5.1228C14.7168 5.04553 14.897 4.99069 15.1476 4.98318L15.0278 0.984976C14.2092 1.00949 13.4172 1.20459 12.6866 1.59515L14.5722 5.1228ZM15.131 4.98361C15.5175 4.97524 15.8667 4.97196 16.1794 4.97351L16.1992 0.973557C15.8448 0.971807 15.4595 0.975559 15.0444 0.984548L15.131 4.98361ZM16.1794 4.97351C16.4887 4.97503 16.7819 4.98217 17.0594 4.99464L17.239 0.998675C16.9039 0.98361 16.5571 0.975324 16.1992 0.973557L16.1794 4.97351ZM17.0594 4.99464C17.3514 5.00776 17.6508 5.02732 17.9578 5.05344L18.2969 1.06785C17.9391 1.03739 17.5864 1.01429 17.239 0.998675L17.0594 4.99464ZM17.9578 5.05344C18.2694 5.07996 18.6169 5.11455 19.001 5.15756L19.446 1.18239C19.0334 1.1362 18.6501 1.0979 18.2969 1.06785L17.9578 5.05344ZM18.9808 5.15518C19.2076 5.18293 19.3437 5.24588 19.4375 5.31138L21.7273 2.03161C21.0447 1.55504 20.2748 1.28364 19.4663 1.18476L18.9808 5.15518ZM19.5015 5.35424C19.6686 5.46158 19.7997 5.59144 19.9082 5.75635L23.2501 3.55814C22.8338 2.92536 22.3005 2.39805 21.6633 1.98876L19.5015 5.35424ZM19.9269 5.78419C20.0496 5.96415 20.1524 6.18411 20.224 6.46265L24.098 5.46673C23.9197 4.77307 23.6346 4.1214 23.2314 3.5303L19.9269 5.78419ZM20.224 6.46265C20.3067 6.78433 20.3511 7.12443 20.3534 7.4875L24.3534 7.46221C24.3491 6.78394 24.2653 6.11726 24.098 5.46673L20.224 6.46265ZM20.3534 7.46498C20.3485 8.46415 20.3429 9.3289 20.3366 10.0596L24.3365 10.0939C24.3428 9.35696 24.3484 8.48714 24.3534 7.48473L20.3534 7.46498ZM20.3366 10.0596C20.3305 10.771 20.3127 11.4533 20.2833 12.1066L24.2793 12.2862C24.311 11.5809 24.33 10.85 24.3365 10.0939L20.3366 10.0596ZM20.2833 12.1066C20.254 12.7599 20.2105 13.441 20.1528 14.1501L24.1396 14.4748C24.2009 13.7211 24.2476 12.9915 24.2793 12.2862L20.2833 12.1066ZM20.1528 14.1501C20.0934 14.8784 20.0214 15.7402 19.9367 16.7357L23.9223 17.0749C24.0073 16.0761 24.0797 15.2093 24.1396 14.4748L20.1528 14.1501ZM18.72 16.5719C19.0005 15.1205 19.1744 13.6159 19.2444 12.0599L15.2484 11.8803C15.1866 13.2546 15.0339 14.5649 14.7927 15.8128L18.72 16.5719ZM19.2444 12.0599C19.3143 10.5038 19.2761 8.98973 19.1269 7.51903L15.1473 7.92272C15.2756 9.18725 15.3102 10.5059 15.2484 11.8803L19.2444 12.0599ZM17.2269 5.7229L16.6475 5.69685L16.4679 9.69282L17.0473 9.71886L17.2269 5.7229ZM14.566 7.87755C14.6826 9.14806 14.7111 10.4729 14.649 11.8533L18.645 12.0329C18.7147 10.483 18.6836 8.97563 18.5493 7.51212L14.566 7.87755ZM14.649 11.8533C14.587 13.2338 14.4398 14.5507 14.2097 15.8056L18.1441 16.5269C18.4091 15.0814 18.5753 13.5829 18.645 12.0329L14.649 11.8533ZM16.0871 18.1643L16.6665 18.1903L16.8461 14.1943L16.2667 14.1683L16.0871 18.1643ZM41.2462 10.9066L39.2682 10.6103L39.267 10.6185L41.2462 10.9066ZM40.8944 12.052L39.0933 11.1824L39.08 11.2099L39.0676 11.2378L40.8944 12.052ZM40.2501 13.0241L41.6714 14.4311L41.6877 14.4147L41.7035 14.3979L40.2501 13.0241ZM39.2996 13.682L40.1128 15.5093L40.1262 15.5033L40.1396 15.4971L39.2996 13.682ZM38.1473 13.9305L38.1082 11.9309L38.0971 11.9311L38.0859 11.9315L38.1473 13.9305ZM33.2722 13.7114L33.5127 11.7259L33.4996 11.7243L33.4864 11.7229L33.2722 13.7114ZM32.1268 13.3596L31.1005 15.0762L31.1265 15.0918L31.153 15.1065L32.1268 13.3596ZM31.2592 12.6199L29.6884 13.8579L29.7026 13.876L29.7173 13.8938L31.2592 12.6199ZM30.6847 11.5931L28.7922 12.2401L28.8021 12.269L28.8129 12.2976L30.6847 11.5931ZM30.4571 10.4217L32.4541 10.3123L32.4536 10.304L30.4571 10.4217ZM30.6178 6.84531L32.5957 7.14163L32.5994 7.11731L32.6024 7.09291L30.6178 6.84531ZM31.5939 4.727L30.1603 3.3325L30.1515 3.34149L30.1429 3.3506L31.5939 4.727ZM33.7167 3.82141L33.6553 1.82235L33.6506 1.8225L33.7167 3.82141ZM38.5918 4.04053L38.3513 6.02602L38.3624 6.02737L38.3735 6.02859L38.5918 4.04053ZM39.7163 4.4114L38.69 6.12799L38.7288 6.1512L38.7686 6.17263L39.7163 4.4114ZM40.6048 5.13202L42.1466 3.85814L42.1466 3.85814L40.6048 5.13202ZM41.1602 6.13798L39.2677 6.78496L39.2776 6.81387L39.2884 6.84247L41.1602 6.13798ZM41.4069 7.33026L39.4096 7.43332L39.41 7.44063L39.4104 7.44794L41.4069 7.33026ZM40.7484 21.535L42.2973 20.2697L42.2973 20.2697L40.7484 21.535ZM40.5156 19.1421L42.5136 19.232L42.6034 17.234L40.6054 17.1442L40.5156 19.1421ZM30.4429 18.309L28.894 19.5743L30.4429 18.309ZM30.6162 14.4529L29.1871 13.0537L29.1871 13.0537L30.6162 14.4529ZM46.2404 15.1552L47.7893 13.8899L47.7893 13.8899L46.2404 15.1552ZM47.7439 12.44L48.8996 14.0722L48.9108 14.0643L48.9219 14.0562L47.7439 12.44ZM47.3126 12.6808L47.9982 14.5597L48.0629 14.5361L48.1258 14.508L47.3126 12.6808ZM46.8614 12.9208L48.0171 14.5531L48.0283 14.5451L48.0394 14.5371L46.8614 12.9208ZM46.3906 14.0408L44.9834 12.6196L44.9834 12.6196L46.3906 14.0408ZM42.0005 13.7234L40.4516 14.9887L40.4516 14.9887L42.0005 13.7234ZM42.4109 4.59257L40.9818 3.1934L40.9818 3.1934L42.4109 4.59257ZM47.1784 5.86793L45.7839 7.30158L45.8671 7.3825L45.9591 7.45325L47.1784 5.86793ZM47.6063 6.14743L46.6324 7.89431L46.6324 7.89432L47.6063 6.14743ZM48.0133 6.44601L46.6188 7.87965L46.656 7.91585L46.695 7.95007L48.0133 6.44601ZM47.9325 8.24419L49.0882 9.87643L49.0994 9.86852L49.1105 9.86045L47.9325 8.24419ZM47.5012 8.48507L48.1868 10.3639L48.2515 10.3403L48.3144 10.3123L47.5012 8.48507ZM47.05 8.72505L48.2057 10.3573L48.2169 10.3494L48.228 10.3413L47.05 8.72505ZM46.9925 10.0038L45.598 11.4374L45.6352 11.4736L45.6743 11.5078L46.9925 10.0038ZM47.4186 10.3232L46.3343 12.0038L46.3343 12.0038L47.4186 10.3232ZM47.8247 10.6418L46.4302 12.0754L46.4674 12.1116L46.5064 12.1458L47.8247 10.6418ZM36.1693 10.278L36.0795 12.276L37.6723 12.3476L38.097 10.8108L36.1693 10.278ZM36.295 7.48087L38.2628 7.12322L37.9776 5.55448L36.3848 5.48289L36.295 7.48087ZM35.6956 7.45393L35.7854 5.45595L33.2792 5.3433L33.7278 7.81158L35.6956 7.45393ZM35.5699 10.2511L33.6421 9.71836L32.9739 12.1364L35.4801 12.2491L35.5699 10.2511ZM39.267 10.6185C39.2388 10.8124 39.1822 10.9983 39.0933 11.1824L42.6954 12.9216C42.9598 12.3742 43.1377 11.7965 43.2253 11.1948L39.267 10.6185ZM39.0676 11.2378C38.993 11.4052 38.9024 11.5384 38.7967 11.6502L41.7035 14.3979C42.1303 13.9464 42.4692 13.4316 42.7212 12.8662L39.0676 11.2378ZM38.8288 11.617C38.743 11.7036 38.6272 11.7894 38.4596 11.867L40.1396 15.4971C40.7081 15.234 41.2258 14.8812 41.6714 14.4311L38.8288 11.617ZM38.4864 11.8548C38.3927 11.8965 38.2739 11.9277 38.1082 11.9309L38.1863 15.9302C38.8488 15.9172 39.4983 15.7827 40.1128 15.5093L38.4864 11.8548ZM38.0859 11.9315C37.2454 11.9573 36.4825 11.9538 35.795 11.9229L35.6154 15.9189C36.4198 15.955 37.2849 15.958 38.2086 15.9296L38.0859 11.9315ZM35.795 11.9229C35.1075 11.892 34.3474 11.827 33.5127 11.7259L33.0317 15.6969C33.9492 15.808 34.8111 15.8827 35.6154 15.9189L35.795 11.9229ZM33.4864 11.7229C33.3006 11.7029 33.1817 11.6579 33.1007 11.6128L31.153 15.1065C31.749 15.4388 32.3936 15.6283 33.0579 15.6999L33.4864 11.7229ZM33.1531 11.6431C33.0026 11.553 32.89 11.4538 32.801 11.3461L29.7173 13.8938C30.1093 14.3682 30.5752 14.7622 31.1005 15.0762L33.1531 11.6431ZM32.83 11.382C32.7232 11.2465 32.6307 11.0858 32.5565 10.8886L28.8129 12.2976C29.0248 12.8607 29.3153 13.3846 29.6884 13.8579L32.83 11.382ZM32.5772 10.9461C32.5069 10.7405 32.4661 10.5309 32.4541 10.3123L28.4601 10.5311C28.4921 11.1153 28.603 11.6866 28.7922 12.2401L32.5772 10.9461ZM32.4536 10.304C32.4191 9.71904 32.4141 9.19497 32.4351 8.72881L28.4391 8.5492C28.411 9.17527 28.4193 9.83966 28.4605 10.5394L32.4536 10.304ZM32.4351 8.72881C32.4567 8.24779 32.5092 7.71939 32.5957 7.14163L28.6399 6.54899C28.5358 7.24395 28.4678 7.91135 28.4391 8.5492L32.4351 8.72881ZM32.6024 7.09291C32.6573 6.6527 32.8109 6.35017 33.045 6.10341L30.1429 3.3506C29.2841 4.25593 28.7869 5.3656 28.6332 6.59771L32.6024 7.09291ZM33.0276 6.12151C33.2013 5.94295 33.4065 5.83276 33.7828 5.82032L33.6506 1.8225C32.316 1.86662 31.1061 2.36017 30.1603 3.3325L33.0276 6.12151ZM33.7781 5.82047C34.6186 5.79466 35.3815 5.79815 36.0689 5.82905L36.2486 1.83309C35.4442 1.79694 34.5791 1.79399 33.6553 1.82235L33.7781 5.82047ZM36.0689 5.82905C36.7564 5.85996 37.5165 5.92492 38.3513 6.02602L38.8323 2.05504C37.9148 1.94392 37.0529 1.86924 36.2486 1.83309L36.0689 5.82905ZM38.3735 6.02859C38.5147 6.04409 38.6115 6.08109 38.69 6.12799L40.7426 2.69481C40.1452 2.33762 39.4923 2.12738 38.8101 2.05248L38.3735 6.02859ZM38.7686 6.17263C38.9062 6.24666 38.9966 6.32556 39.063 6.4059L42.1466 3.85814C41.732 3.3563 41.2301 2.95479 40.664 2.65017L38.7686 6.17263ZM39.063 6.4059C39.1404 6.49956 39.2112 6.61948 39.2677 6.78496L43.0527 5.49099C42.8497 4.89739 42.5503 4.34667 42.1466 3.85814L39.063 6.4059ZM39.2884 6.84247C39.3573 7.02548 39.3986 7.2197 39.4096 7.43332L43.4043 7.22719C43.3725 6.61139 43.2493 6.01075 43.032 5.43348L39.2884 6.84247ZM39.4104 7.44794C39.4448 8.03113 39.4496 8.56211 39.428 9.04313L43.424 9.22274C43.4526 8.58488 43.4448 7.91408 43.4035 7.21257L39.4104 7.44794ZM39.428 9.04313C39.4071 9.50929 39.3551 10.0308 39.2682 10.6103L43.2241 11.203C43.3279 10.5098 43.3958 9.8488 43.424 9.22274L39.428 9.04313ZM44.3307 20.675C44.3289 20.7131 44.325 20.6858 44.3509 20.6184C44.3791 20.5449 44.4317 20.4535 44.5141 20.3693L47.3723 23.1677C48.0357 22.4901 48.2912 21.6423 48.3266 20.8546L44.3307 20.675ZM44.5141 20.3693C44.6002 20.2813 44.7172 20.2027 44.851 20.1543C44.9787 20.1082 45.071 20.1077 45.0969 20.1088L44.9172 24.1048C45.7854 24.1438 46.6796 23.8752 47.3723 23.1677L44.5141 20.3693ZM45.0969 20.1088L41.7402 19.958L41.5606 23.9539L44.9172 24.1048L45.0969 20.1088ZM41.7402 19.958C41.7661 19.9591 41.858 19.9679 41.981 20.0253C42.11 20.0855 42.2194 20.1743 42.2973 20.2697L39.1996 22.8003C39.826 23.5672 40.6925 23.9149 41.5606 23.9539L41.7402 19.958ZM42.2973 20.2697C42.3718 20.3609 42.416 20.4566 42.4375 20.5324C42.4573 20.6019 42.4508 20.6287 42.4526 20.5906L38.4566 20.411C38.4212 21.1987 38.5996 22.0659 39.1996 22.8003L42.2973 20.2697ZM42.4526 20.5906L42.5136 19.232L38.5177 19.0523L38.4566 20.411L42.4526 20.5906ZM40.6054 17.1442L31.4347 16.732L31.2551 20.7279L40.4258 21.1401L40.6054 17.1442ZM31.4347 16.732C31.4606 16.7331 31.5525 16.7419 31.6754 16.7993C31.8044 16.8595 31.9138 16.9483 31.9918 17.0437L28.894 19.5743C29.5205 20.3412 30.387 20.6889 31.2551 20.7279L31.4347 16.732ZM31.9918 17.0437C32.0663 17.1349 32.1105 17.2306 32.132 17.3064C32.1517 17.3759 32.1453 17.4027 32.147 17.3646L28.1511 17.185C28.1156 17.9727 28.2941 18.8399 28.894 19.5743L31.9918 17.0437ZM32.147 17.3646L32.2287 15.5464L28.2328 15.3668L28.1511 17.185L32.147 17.3646ZM32.2287 15.5464C32.2305 15.5083 32.2344 15.5356 32.2085 15.603C32.1803 15.6766 32.1277 15.7679 32.0453 15.8521L29.1871 13.0537C28.5237 13.7314 28.2682 14.5791 28.2328 15.3668L32.2287 15.5464ZM32.0453 15.8521C31.9592 15.9401 31.8422 16.0187 31.7084 16.0671C31.5807 16.1132 31.4884 16.1138 31.4625 16.1126L31.6422 12.1166C30.774 12.0776 29.8798 12.3462 29.1871 13.0537L32.0453 15.8521ZM31.4625 16.1126L45.2486 16.7322L45.4282 12.7363L31.6422 12.1166L31.4625 16.1126ZM45.2486 16.7322C45.2228 16.7311 45.1308 16.7223 45.0079 16.6649C44.8789 16.6047 44.7695 16.5159 44.6916 16.4205L47.7893 13.8899C47.1628 13.123 46.2964 12.7753 45.4282 12.7363L45.2486 16.7322ZM44.6916 16.4205C44.6171 16.3293 44.5729 16.2336 44.5513 16.1578C44.5316 16.0883 44.538 16.0615 44.5363 16.0996L48.5323 16.2792C48.5677 15.4915 48.3893 14.6243 47.7893 13.8899L44.6916 16.4205ZM44.5363 16.0996L44.3307 20.675L48.3266 20.8546L48.5323 16.2792L44.5363 16.0996ZM45.9663 11.8996C45.9718 11.7782 46.0009 11.5877 46.106 11.3729C46.2155 11.1492 46.3776 10.9609 46.5659 10.8237L48.9219 14.0562C49.6379 13.5344 49.9313 12.7695 49.9623 12.0792L45.9663 11.8996ZM46.5881 10.8077C46.5884 10.8075 46.563 10.8253 46.4994 10.8536L48.1258 14.508C48.3891 14.3909 48.6512 14.2481 48.8996 14.0722L46.5881 10.8077ZM46.6271 10.802C46.2913 10.9245 45.9747 11.0922 45.6834 11.3046L48.0394 14.5371C48.0326 14.5421 48.0248 14.5469 48.0168 14.5512C48.0088 14.5555 48.0023 14.5582 47.9982 14.5597L46.6271 10.802ZM45.7056 11.2886C44.9277 11.8394 44.6911 12.6568 44.6638 13.2625L48.6598 13.4421C48.6556 13.5362 48.6339 13.7175 48.5337 13.9342C48.4266 14.1656 48.2528 14.3862 48.0171 14.5531L45.7056 11.2886ZM44.6638 13.2625C44.6653 13.2291 44.674 13.1365 44.7233 13.0112C44.7751 12.8796 44.8609 12.741 44.9834 12.6196L47.7978 15.462C48.4043 14.8615 48.6298 14.1095 48.6598 13.4421L44.6638 13.2625ZM44.9834 12.6196C45.1034 12.5008 45.2577 12.4005 45.4334 12.3382C45.6034 12.2779 45.7451 12.27 45.8294 12.2738L45.6498 16.2698C46.3935 16.3032 47.1798 16.0739 47.7978 15.462L44.9834 12.6196ZM45.8294 12.2738L42.9923 12.1463L42.8127 16.1423L45.6498 16.2698L45.8294 12.2738ZM42.9923 12.1463C43.0181 12.1475 43.1101 12.1563 43.233 12.2137C43.362 12.2739 43.4714 12.3627 43.5493 12.458L40.4516 14.9887C41.0781 15.7555 41.9445 16.1032 42.8127 16.1423L42.9923 12.1463ZM43.5493 12.458C43.6238 12.5493 43.668 12.645 43.6895 12.7207C43.7093 12.7902 43.7029 12.817 43.7046 12.7789L39.7086 12.5993C39.6732 13.387 39.8516 14.2543 40.4516 14.9887L43.5493 12.458ZM43.7046 12.7789L44.0234 5.68608L40.0274 5.50647L39.7086 12.5993L43.7046 12.7789ZM44.0234 5.68608C44.0251 5.64797 44.0291 5.67525 44.0032 5.74269C43.975 5.81621 43.9224 5.90758 43.84 5.99174L40.9818 3.1934C40.3183 3.87102 40.0628 4.71878 40.0274 5.50647L44.0234 5.68608ZM43.84 5.99174C43.7538 6.07974 43.6369 6.15838 43.503 6.20676C43.3754 6.25288 43.283 6.25341 43.2572 6.25225L43.4368 2.25628C42.5687 2.21726 41.6745 2.48585 40.9818 3.1934L43.84 5.99174ZM43.2572 6.25225L46.0544 6.37798L46.234 2.38201L43.4368 2.25628L43.2572 6.25225ZM46.0544 6.37798C45.9687 6.37413 45.8386 6.35371 45.69 6.28734C45.5382 6.21952 45.411 6.12311 45.3155 6.01865L48.2681 3.32008C47.7117 2.71126 46.979 2.4155 46.234 2.38201L46.0544 6.37798ZM45.3155 6.01865C45.2011 5.89347 45.1172 5.74529 45.0687 5.5943C45.0224 5.45004 45.0199 5.34001 45.0222 5.29053L49.0181 5.47014C49.0501 4.75883 48.8603 3.96797 48.2681 3.32008L45.3155 6.01865ZM45.0222 5.29053C44.9958 5.87658 45.1361 6.67146 45.7839 7.30158L48.5729 4.43429C48.9905 4.84052 49.0253 5.31033 49.0181 5.47014L45.0222 5.29053ZM45.9591 7.45325C46.173 7.61781 46.3988 7.76408 46.6324 7.89431L48.5801 4.40054C48.5013 4.35657 48.4418 4.31651 48.3977 4.28262L45.9591 7.45325ZM46.6324 7.89432C46.6526 7.90553 46.643 7.90317 46.6188 7.87965L49.4078 5.01236C49.1534 4.76495 48.8725 4.56353 48.5801 4.40054L46.6324 7.89432ZM46.695 7.95007C46.5198 7.7965 46.3752 7.59448 46.2863 7.36183C46.2009 7.13849 46.189 6.94612 46.1944 6.82472L50.1904 7.00433C50.2214 6.31399 49.9978 5.52593 49.3315 4.94194L46.695 7.95007ZM46.1944 6.82472L46.1549 7.70383L50.1509 7.88344L50.1904 7.00433L46.1944 6.82472ZM46.1549 7.70383C46.1604 7.58243 46.1895 7.3919 46.2946 7.17712C46.4041 6.95339 46.5662 6.76516 46.7545 6.62793L49.1105 9.86045C49.8265 9.33859 50.1199 8.57378 50.1509 7.88344L46.1549 7.70383ZM46.7767 6.61194C46.777 6.61174 46.7516 6.62956 46.688 6.65785L48.3144 10.3123C48.5777 10.1951 48.8398 10.0523 49.0882 9.87643L46.7767 6.61194ZM46.8157 6.60624C46.4799 6.72875 46.1633 6.89644 45.872 7.10879L48.228 10.3413C48.2211 10.3463 48.2134 10.3512 48.2054 10.3554C48.1974 10.3597 48.1909 10.3624 48.1868 10.3639L46.8157 6.60624ZM45.8942 7.0928C45.0849 7.66587 44.877 8.51991 44.8515 9.0867L48.8475 9.26631C48.8412 9.40685 48.7669 9.95993 48.2057 10.3573L45.8942 7.0928ZM44.8515 9.0867L44.8363 9.42636L48.8322 9.60597L48.8475 9.26631L44.8515 9.0867ZM44.8363 9.42636C44.8099 10.0124 44.9502 10.8073 45.598 11.4374L48.387 8.57011C48.8047 8.97634 48.8394 9.44616 48.8322 9.60597L44.8363 9.42636ZM45.6743 11.5078C45.8821 11.69 46.1033 11.8547 46.3343 12.0038L48.5029 8.64265C48.4226 8.59084 48.3597 8.54261 48.3108 8.4997L45.6743 11.5078ZM46.3343 12.0038C46.3952 12.0431 46.4232 12.0687 46.4302 12.0754L49.2192 9.20812C48.996 8.99099 48.7533 8.8042 48.5029 8.64265L46.3343 12.0038ZM46.5064 12.1458C46.3312 11.9923 46.1866 11.7902 46.0977 11.5576C46.0123 11.3343 46.0004 11.1419 46.0059 11.0205L50.0018 11.2001C50.0329 10.5097 49.8093 9.7217 49.143 9.13771L46.5064 12.1458ZM46.0059 11.0205L45.9663 11.8996L49.9623 12.0792L50.0018 11.2001L46.0059 11.0205ZM38.097 10.8108C38.4322 9.59797 38.4878 8.36122 38.2628 7.12322L34.3272 7.83852C34.4446 8.48446 34.4164 9.1125 34.2415 9.7453L38.097 10.8108ZM36.3848 5.48289L35.7854 5.45595L35.6058 9.45191L36.2052 9.47885L36.3848 5.48289ZM33.7278 7.81158C33.8452 8.45752 33.817 9.08556 33.6421 9.71836L37.4976 10.7839C37.8328 9.57103 37.8884 8.33428 37.6634 7.09628L33.7278 7.81158ZM35.4801 12.2491L36.0795 12.276L36.2591 8.28006L35.6597 8.25312L35.4801 12.2491Z" fill="white" mask="url(#path-4-outside-1_28_781)"/>
    <mask id="path-6-outside-2_28_781" maskUnits="userSpaceOnUse" x="12.9595" y="21.9163" width="42.9352" height="24.7557" fill="black">
        <rect fill="white" x="12.9595" y="21.9163" width="42.9352" height="24.7557"/>
        <path d="M33.1325 42.0158C33.1505 42.4421 33.0517 42.7866 32.8359 43.0493C32.6202 43.312 32.3191 43.4515 31.9328 43.4679L17.7056 44.0701C17.3192 44.0865 17.0075 43.9729 16.7703 43.7294C16.5331 43.4858 16.4055 43.1509 16.3875 42.7247L16.3097 40.8863C16.2916 40.46 16.3905 40.1155 16.6062 39.8528C16.822 39.5901 17.123 39.4506 17.5093 39.4343L21.2859 39.2744L21.2081 37.436L17.4315 37.5959C17.0452 37.6123 16.7334 37.4987 16.4963 37.2552C16.2591 37.0116 16.1315 36.6767 16.1134 36.2505L15.7548 27.778C15.7367 27.3518 15.8356 27.0073 16.0513 26.7446C16.2671 26.4819 16.5681 26.3424 16.9544 26.326L31.1817 25.7238C31.568 25.7074 31.8798 25.821 32.117 26.0645C32.3541 26.308 32.4817 26.6429 32.4998 27.0692L32.8584 35.5416C32.8765 35.9679 32.7776 36.3124 32.5619 36.5751C32.3461 36.8378 32.0451 36.9773 31.6588 36.9937L27.8821 37.1535L27.96 38.9919L31.7366 38.832C32.1229 38.8157 32.4347 38.9292 32.6718 39.1728C32.909 39.4163 33.0366 39.7512 33.0547 40.1775L33.1325 42.0158ZM27.2063 32.538L27.1218 30.5398L21.4069 30.7817L21.4915 32.7799L27.2063 32.538ZM51.8835 41.2221C51.9016 41.6484 51.8027 41.9929 51.587 42.2556C51.3712 42.5182 51.0702 42.6578 50.6838 42.6741L48.226 42.7782C47.8397 42.7945 47.528 42.6809 47.2908 42.4374C47.0536 42.1939 46.926 41.859 46.908 41.4327L46.2753 26.4861C46.2572 26.0598 46.3561 25.7153 46.5718 25.4526C46.7876 25.1899 47.0886 25.0504 47.4749 25.0341L49.9327 24.93C50.319 24.9137 50.6308 25.0272 50.868 25.2708C51.1052 25.5143 51.2328 25.8492 51.2508 26.2755L51.2813 26.9948C51.2903 27.208 51.3573 27.3719 51.4822 27.4868C51.6205 27.601 51.7719 27.708 51.9362 27.8079C52.1 27.8943 52.2444 27.995 52.3694 28.1098C52.5071 28.2107 52.5805 28.3678 52.5895 28.5809L52.6758 30.6191C52.6848 30.8322 52.6253 31.0016 52.4971 31.1271C52.3823 31.2521 52.2472 31.3712 52.0919 31.4846C51.936 31.5846 51.7939 31.6974 51.6658 31.8229C51.5504 31.9345 51.4972 32.0969 51.5063 32.3101L51.6027 34.588C51.6117 34.8012 51.6787 34.9651 51.8037 35.08C51.942 35.1942 52.0933 35.3012 52.2577 35.4011C52.4215 35.4875 52.5658 35.5882 52.6908 35.703C52.8285 35.8039 52.9019 35.961 52.9109 36.1741L52.9972 38.2123C53.0062 38.4254 52.9467 38.5948 52.8185 38.7203C52.7037 38.8453 52.5686 38.9644 52.4133 39.0778C52.2574 39.1778 52.1154 39.2906 51.9872 39.4161C51.8718 39.5277 51.8187 39.6901 51.8277 39.9033L51.8835 41.2221ZM41.136 38.4341C41.4206 35.6997 41.301 32.8755 40.7773 29.9617L40.1779 29.9871C40.7016 32.9009 40.8211 35.725 40.5365 38.4595L41.136 38.4341ZM46.2717 38.6972C46.2665 39.2045 46.2008 39.7011 46.0745 40.1868C45.9483 40.6726 45.7535 41.1146 45.4901 41.5127C45.24 41.9103 44.9202 42.2375 44.5307 42.4942C44.1418 42.7642 43.6884 42.9302 43.1706 42.9922C42.7721 43.0357 42.4066 43.0712 42.0741 43.0986C41.7555 43.1388 41.4364 43.1657 41.1166 43.1792C40.8103 43.1922 40.49 43.1924 40.1558 43.1798C39.8222 43.1806 39.455 43.1761 39.0543 43.1664C38.533 43.1484 38.0539 43.0219 37.6169 42.7869C37.1938 42.5646 36.8209 42.2667 36.4981 41.8934C36.1887 41.5195 35.9373 41.0964 35.7438 40.6241C35.5636 40.1513 35.4562 39.6621 35.4214 39.1565C35.3392 38.1591 35.2692 37.2946 35.2115 36.563C35.1672 35.8309 35.1307 35.1252 35.1019 34.4458C35.0731 33.7664 35.0499 33.0601 35.0322 32.3268C35.0279 31.593 35.0245 30.7257 35.0222 29.7249C35.0141 29.2181 35.0798 28.7216 35.2193 28.2352C35.3722 27.7483 35.587 27.3055 35.8637 26.9068C36.1538 26.5075 36.5002 26.1792 36.903 25.922C37.3186 25.6508 37.7853 25.4843 38.3031 25.4223C38.7017 25.3787 39.0671 25.3433 39.3996 25.3158C39.7321 25.2884 40.0515 25.2682 40.3579 25.2552C40.6776 25.2417 40.9976 25.2348 41.3179 25.2346C41.6515 25.2339 42.0187 25.2383 42.4195 25.2481C42.9407 25.266 43.4065 25.3931 43.8168 25.6293C44.2266 25.8522 44.5729 26.1511 44.8557 26.5262C45.1512 26.8873 45.3824 27.3046 45.5493 27.7779C45.7161 28.2513 45.8238 28.7472 45.8725 29.2656C45.9547 30.263 46.0247 31.1275 46.0823 31.8591C46.14 32.5906 46.1832 33.2961 46.212 33.9755C46.2407 34.6549 46.2573 35.3615 46.2616 36.0953C46.266 36.8291 46.2694 37.6964 46.2717 38.6972Z"/>
    </mask>
    <path d="M33.1325 42.0158C33.1505 42.4421 33.0517 42.7866 32.8359 43.0493C32.6202 43.312 32.3191 43.4515 31.9328 43.4679L17.7056 44.0701C17.3192 44.0865 17.0075 43.9729 16.7703 43.7294C16.5331 43.4858 16.4055 43.1509 16.3875 42.7247L16.3097 40.8863C16.2916 40.46 16.3905 40.1155 16.6062 39.8528C16.822 39.5901 17.123 39.4506 17.5093 39.4343L21.2859 39.2744L21.2081 37.436L17.4315 37.5959C17.0452 37.6123 16.7334 37.4987 16.4963 37.2552C16.2591 37.0116 16.1315 36.6767 16.1134 36.2505L15.7548 27.778C15.7367 27.3518 15.8356 27.0073 16.0513 26.7446C16.2671 26.4819 16.5681 26.3424 16.9544 26.326L31.1817 25.7238C31.568 25.7074 31.8798 25.821 32.117 26.0645C32.3541 26.308 32.4817 26.6429 32.4998 27.0692L32.8584 35.5416C32.8765 35.9679 32.7776 36.3124 32.5619 36.5751C32.3461 36.8378 32.0451 36.9773 31.6588 36.9937L27.8821 37.1535L27.96 38.9919L31.7366 38.832C32.1229 38.8157 32.4347 38.9292 32.6718 39.1728C32.909 39.4163 33.0366 39.7512 33.0547 40.1775L33.1325 42.0158ZM27.2063 32.538L27.1218 30.5398L21.4069 30.7817L21.4915 32.7799L27.2063 32.538ZM51.8835 41.2221C51.9016 41.6484 51.8027 41.9929 51.587 42.2556C51.3712 42.5182 51.0702 42.6578 50.6838 42.6741L48.226 42.7782C47.8397 42.7945 47.528 42.6809 47.2908 42.4374C47.0536 42.1939 46.926 41.859 46.908 41.4327L46.2753 26.4861C46.2572 26.0598 46.3561 25.7153 46.5718 25.4526C46.7876 25.1899 47.0886 25.0504 47.4749 25.0341L49.9327 24.93C50.319 24.9137 50.6308 25.0272 50.868 25.2708C51.1052 25.5143 51.2328 25.8492 51.2508 26.2755L51.2813 26.9948C51.2903 27.208 51.3573 27.3719 51.4822 27.4868C51.6205 27.601 51.7719 27.708 51.9362 27.8079C52.1 27.8943 52.2444 27.995 52.3694 28.1098C52.5071 28.2107 52.5805 28.3678 52.5895 28.5809L52.6758 30.6191C52.6848 30.8322 52.6253 31.0016 52.4971 31.1271C52.3823 31.2521 52.2472 31.3712 52.0919 31.4846C51.936 31.5846 51.7939 31.6974 51.6658 31.8229C51.5504 31.9345 51.4972 32.0969 51.5063 32.3101L51.6027 34.588C51.6117 34.8012 51.6787 34.9651 51.8037 35.08C51.942 35.1942 52.0933 35.3012 52.2577 35.4011C52.4215 35.4875 52.5658 35.5882 52.6908 35.703C52.8285 35.8039 52.9019 35.961 52.9109 36.1741L52.9972 38.2123C53.0062 38.4254 52.9467 38.5948 52.8185 38.7203C52.7037 38.8453 52.5686 38.9644 52.4133 39.0778C52.2574 39.1778 52.1154 39.2906 51.9872 39.4161C51.8718 39.5277 51.8187 39.6901 51.8277 39.9033L51.8835 41.2221ZM41.136 38.4341C41.4206 35.6997 41.301 32.8755 40.7773 29.9617L40.1779 29.9871C40.7016 32.9009 40.8211 35.725 40.5365 38.4595L41.136 38.4341ZM46.2717 38.6972C46.2665 39.2045 46.2008 39.7011 46.0745 40.1868C45.9483 40.6726 45.7535 41.1146 45.4901 41.5127C45.24 41.9103 44.9202 42.2375 44.5307 42.4942C44.1418 42.7642 43.6884 42.9302 43.1706 42.9922C42.7721 43.0357 42.4066 43.0712 42.0741 43.0986C41.7555 43.1388 41.4364 43.1657 41.1166 43.1792C40.8103 43.1922 40.49 43.1924 40.1558 43.1798C39.8222 43.1806 39.455 43.1761 39.0543 43.1664C38.533 43.1484 38.0539 43.0219 37.6169 42.7869C37.1938 42.5646 36.8209 42.2667 36.4981 41.8934C36.1887 41.5195 35.9373 41.0964 35.7438 40.6241C35.5636 40.1513 35.4562 39.6621 35.4214 39.1565C35.3392 38.1591 35.2692 37.2946 35.2115 36.563C35.1672 35.8309 35.1307 35.1252 35.1019 34.4458C35.0731 33.7664 35.0499 33.0601 35.0322 32.3268C35.0279 31.593 35.0245 30.7257 35.0222 29.7249C35.0141 29.2181 35.0798 28.7216 35.2193 28.2352C35.3722 27.7483 35.587 27.3055 35.8637 26.9068C36.1538 26.5075 36.5002 26.1792 36.903 25.922C37.3186 25.6508 37.7853 25.4843 38.3031 25.4223C38.7017 25.3787 39.0671 25.3433 39.3996 25.3158C39.7321 25.2884 40.0515 25.2682 40.3579 25.2552C40.6776 25.2417 40.9976 25.2348 41.3179 25.2346C41.6515 25.2339 42.0187 25.2383 42.4195 25.2481C42.9407 25.266 43.4065 25.3931 43.8168 25.6293C44.2266 25.8522 44.5729 26.1511 44.8557 26.5262C45.1512 26.8873 45.3824 27.3046 45.5493 27.7779C45.7161 28.2513 45.8238 28.7472 45.8725 29.2656C45.9547 30.263 46.0247 31.1275 46.0823 31.8591C46.14 32.5906 46.1832 33.2961 46.212 33.9755C46.2407 34.6549 46.2573 35.3615 46.2616 36.0953C46.266 36.8291 46.2694 37.6964 46.2717 38.6972Z" fill="#6ECEC9"/>
    <path d="M32.8359 43.0493L34.3815 44.3187L34.3815 44.3187L32.8359 43.0493ZM16.7703 43.7294L15.3376 45.1248L15.3376 45.1248L16.7703 43.7294ZM16.6062 39.8528L15.0607 38.5835L15.0607 38.5835L16.6062 39.8528ZM21.2859 39.2744L21.3705 41.2726L23.3687 41.188L23.2842 39.1898L21.2859 39.2744ZM21.2081 37.436L23.2063 37.3515L23.1218 35.3532L21.1235 35.4378L21.2081 37.436ZM16.4963 37.2552L15.0635 38.6506L15.0635 38.6506L16.4963 37.2552ZM16.0513 26.7446L14.5058 25.4752L14.5058 25.4752L16.0513 26.7446ZM32.117 26.0645L33.5497 24.6691L33.5497 24.6691L32.117 26.0645ZM32.5619 36.5751L34.1074 37.8445L34.1074 37.8445L32.5619 36.5751ZM27.8821 37.1535L27.7976 35.1553L25.7994 35.2399L25.8839 37.2381L27.8821 37.1535ZM27.96 38.9919L25.9618 39.0765L26.0463 41.0747L28.0446 40.9901L27.96 38.9919ZM32.6718 39.1728L34.1046 37.7773L34.1046 37.7773L32.6718 39.1728ZM27.2063 32.538L27.2909 34.5362L29.2891 34.4516L29.2046 32.4534L27.2063 32.538ZM27.1218 30.5398L29.12 30.4552L29.0354 28.457L27.0372 28.5416L27.1218 30.5398ZM21.4069 30.7817L21.3223 28.7835L19.3241 28.8681L19.4087 30.8663L21.4069 30.7817ZM21.4915 32.7799L19.4932 32.8645L19.5778 34.8627L21.576 34.7781L21.4915 32.7799ZM31.1343 42.1004C31.1359 42.1385 31.1295 42.1117 31.1495 42.0423C31.1712 41.9666 31.2156 41.871 31.2904 41.7799L34.3815 44.3187C34.9834 43.5858 35.164 42.719 35.1307 41.9312L31.1343 42.1004ZM31.2904 41.7799C31.3685 41.6848 31.4782 41.5962 31.6073 41.5364C31.7304 41.4793 31.8224 41.4707 31.8482 41.4697L32.0174 45.4661C32.8856 45.4293 33.753 45.0839 34.3815 44.3187L31.2904 41.7799ZM31.8482 41.4697L17.621 42.0719L17.7901 46.0683L32.0174 45.4661L31.8482 41.4697ZM17.621 42.0719C17.6468 42.0708 17.7392 42.0716 17.8667 42.118C18.0004 42.1668 18.1171 42.2457 18.2031 42.3339L15.3376 45.1248C16.0285 45.8342 16.9219 46.1051 17.7901 46.0683L17.621 42.0719ZM18.2031 42.3339C18.2852 42.4183 18.3376 42.5098 18.3656 42.5834C18.3914 42.6509 18.3873 42.6782 18.3857 42.6401L14.3893 42.8092C14.4226 43.597 14.6759 44.4454 15.3376 45.1248L18.2031 42.3339ZM18.3857 42.6401L18.3079 40.8017L14.3115 40.9709L14.3893 42.8092L18.3857 42.6401ZM18.3079 40.8017C18.3063 40.7636 18.3126 40.7904 18.2927 40.8599C18.271 40.9356 18.2265 41.0312 18.1518 41.1222L15.0607 38.5835C14.4588 39.3163 14.2781 40.1831 14.3115 40.9709L18.3079 40.8017ZM18.1518 41.1222C18.0736 41.2174 17.964 41.3059 17.8348 41.3658C17.7117 41.4228 17.6198 41.4314 17.5939 41.4325L17.4247 37.4361C16.5565 37.4728 15.6891 37.8183 15.0607 38.5835L18.1518 41.1222ZM17.5939 41.4325L21.3705 41.2726L21.2014 37.2762L17.4247 37.4361L17.5939 41.4325ZM23.2842 39.1898L23.2063 37.3515L19.2099 37.5206L19.2877 39.359L23.2842 39.1898ZM21.1235 35.4378L17.3469 35.5977L17.5161 39.5941L21.2927 39.4343L21.1235 35.4378ZM17.3469 35.5977C17.3728 35.5966 17.4651 35.5974 17.5926 35.6438C17.7264 35.6926 17.8431 35.7715 17.929 35.8597L15.0635 38.6506C15.7544 39.36 16.6479 39.6309 17.5161 39.5941L17.3469 35.5977ZM17.929 35.8597C18.0112 35.9441 18.0635 36.0356 18.0916 36.1092C18.1173 36.1767 18.1132 36.204 18.1116 36.1659L14.1152 36.335C14.1486 37.1228 14.4019 37.9712 15.0635 38.6506L17.929 35.8597ZM18.1116 36.1659L17.753 27.6935L13.7566 27.8626L14.1152 36.335L18.1116 36.1659ZM17.753 27.6935C17.7514 27.6553 17.7577 27.6822 17.7378 27.7516C17.7161 27.8273 17.6716 27.9229 17.5969 28.0139L14.5058 25.4752C13.9039 26.208 13.7232 27.0748 13.7566 27.8626L17.753 27.6935ZM17.5969 28.0139C17.5187 28.1091 17.4091 28.1976 17.2799 28.2575C17.1568 28.3145 17.0649 28.3231 17.039 28.3242L16.8699 24.3278C16.0016 24.3645 15.1343 24.71 14.5058 25.4752L17.5969 28.0139ZM17.039 28.3242L31.2663 27.722L31.0971 23.7255L16.8699 24.3278L17.039 28.3242ZM31.2663 27.722C31.2404 27.7231 31.1481 27.7223 31.0206 27.6758C30.8868 27.6271 30.7701 27.5482 30.6842 27.4599L33.5497 24.6691C32.8588 23.9597 31.9653 23.6888 31.0971 23.7255L31.2663 27.722ZM30.6842 27.4599C30.602 27.3756 30.5497 27.2841 30.5216 27.2105C30.4959 27.143 30.5 27.1157 30.5016 27.1538L34.498 26.9846C34.4647 26.1968 34.2114 25.3484 33.5497 24.6691L30.6842 27.4599ZM30.5016 27.1538L30.8602 35.6262L34.8566 35.457L34.498 26.9846L30.5016 27.1538ZM30.8602 35.6262C30.8618 35.6643 30.8555 35.6375 30.8754 35.5681C30.8971 35.4924 30.9416 35.3968 31.0163 35.3057L34.1074 37.8445C34.7093 37.1116 34.89 36.2448 34.8566 35.457L30.8602 35.6262ZM31.0163 35.3057C31.0945 35.2106 31.2041 35.122 31.3333 35.0622C31.4564 35.0051 31.5483 34.9965 31.5742 34.9955L31.7434 38.9919C32.6116 38.9551 33.479 38.6097 34.1074 37.8445L31.0163 35.3057ZM31.5742 34.9955L27.7976 35.1553L27.9667 39.1517L31.7434 38.9919L31.5742 34.9955ZM25.8839 37.2381L25.9618 39.0765L29.9582 38.9073L29.8804 37.0689L25.8839 37.2381ZM28.0446 40.9901L31.8212 40.8302L31.652 36.8338L27.8754 36.9937L28.0446 40.9901ZM31.8212 40.8302C31.7953 40.8313 31.703 40.8305 31.5755 40.7841C31.4417 40.7354 31.325 40.6564 31.2391 40.5682L34.1046 37.7773C33.4137 37.068 32.5202 36.7971 31.652 36.8338L31.8212 40.8302ZM31.2391 40.5682C31.1569 40.4838 31.1045 40.3923 31.0765 40.3187C31.0508 40.2512 31.0548 40.2239 31.0565 40.2621L35.0529 40.0929C35.0195 39.3051 34.7662 38.4567 34.1046 37.7773L31.2391 40.5682ZM31.0565 40.2621L31.1343 42.1004L35.1307 41.9312L35.0529 40.0929L31.0565 40.2621ZM29.2046 32.4534L29.12 30.4552L25.1235 30.6244L25.2081 32.6226L29.2046 32.4534ZM27.0372 28.5416L21.3223 28.7835L21.4915 32.7799L27.2063 32.538L27.0372 28.5416ZM19.4087 30.8663L19.4932 32.8645L23.4897 32.6953L23.4051 30.6971L19.4087 30.8663ZM21.576 34.7781L27.2909 34.5362L27.1218 30.5398L21.4069 30.7817L21.576 34.7781ZM47.2908 42.4374L45.858 43.8328L45.8581 43.8328L47.2908 42.4374ZM46.5718 25.4526L45.0263 24.1833L45.0263 24.1833L46.5718 25.4526ZM51.4822 27.4868L50.1291 28.9595L50.1678 28.9951L50.2084 29.0286L51.4822 27.4868ZM51.9362 27.8079L50.8982 29.5174L50.9494 29.5485L51.0025 29.5765L51.9362 27.8079ZM52.3694 28.1098L51.0163 29.5826L51.0978 29.6575L51.1872 29.723L52.3694 28.1098ZM52.4971 31.1271L51.0975 29.6984L51.0599 29.7352L51.0244 29.774L52.4971 31.1271ZM52.0919 31.4846L53.1718 33.168L53.2222 33.1356L53.2707 33.1003L52.0919 31.4846ZM51.6658 31.8229L53.0566 33.2602L53.0654 33.2516L51.6658 31.8229ZM51.8037 35.08L50.4505 36.5527L50.4893 36.5883L50.5298 36.6218L51.8037 35.08ZM52.2577 35.4011L51.2196 37.1106L51.2709 37.1417L51.3239 37.1697L52.2577 35.4011ZM52.6908 35.703L51.3377 37.1758L51.4192 37.2507L51.5086 37.3162L52.6908 35.703ZM52.8185 38.7203L51.4189 37.2916L51.3814 37.3284L51.3458 37.3672L52.8185 38.7203ZM52.4133 39.0778L53.4932 40.7612L53.5437 40.7288L53.5921 40.6935L52.4133 39.0778ZM51.9872 39.4161L53.378 40.8534L53.3868 40.8448L51.9872 39.4161ZM41.136 38.4341L41.2206 40.4323L42.9464 40.3593L43.1252 38.6412L41.136 38.4341ZM40.7773 29.9617L42.7458 29.6079L42.437 27.8897L40.6928 27.9635L40.7773 29.9617ZM40.1779 29.9871L40.0933 27.9889L37.8041 28.0858L38.2094 30.3409L40.1779 29.9871ZM40.5365 38.4595L38.5473 38.2525L38.3075 40.5557L40.6211 40.4577L40.5365 38.4595ZM46.2717 38.6972L48.2716 38.7177L48.2717 38.7051L48.2717 38.6925L46.2717 38.6972ZM46.0745 40.1868L44.1388 39.6838L44.1388 39.6838L46.0745 40.1868ZM45.4901 41.5127L43.822 40.4093L43.8093 40.4285L43.7971 40.4479L45.4901 41.5127ZM44.5307 42.4942L43.4301 40.8243L43.41 40.8376L43.3901 40.8513L44.5307 42.4942ZM43.1706 42.9922L43.3879 44.9803L43.398 44.9792L43.4082 44.978L43.1706 42.9922ZM42.0741 43.0986L41.9097 41.1054L41.8667 41.1089L41.8239 41.1143L42.0741 43.0986ZM40.1558 43.1798L40.2308 41.1812L40.191 41.1797L40.1512 41.1798L40.1558 43.1798ZM39.0543 43.1664L38.9853 45.1652L38.9955 45.1656L39.0057 45.1658L39.0543 43.1664ZM37.6169 42.7869L38.5644 41.0255L38.5558 41.0209L38.5471 41.0164L37.6169 42.7869ZM36.4981 41.8934L34.9573 43.1685L34.971 43.185L34.9851 43.2013L36.4981 41.8934ZM35.7438 40.6241L33.8749 41.3363L33.8837 41.3594L33.8931 41.3824L35.7438 40.6241ZM35.4214 39.1565L37.4167 39.0193L37.4158 39.0057L37.4146 38.9921L35.4214 39.1565ZM35.2115 36.563L33.2152 36.6839L33.2163 36.7021L33.2177 36.7202L35.2115 36.563ZM35.0322 32.3268L33.0323 32.3387L33.0324 32.3569L33.0328 32.3751L35.0322 32.3268ZM35.0222 29.7249L37.0222 29.7203L37.0221 29.7066L37.0219 29.6929L35.0222 29.7249ZM35.2193 28.2352L33.3112 27.6361L33.3038 27.6598L33.2969 27.6836L35.2193 28.2352ZM35.8637 26.9068L34.2456 25.7314L34.2329 25.7488L34.2207 25.7665L35.8637 26.9068ZM36.903 25.922L37.9795 27.6075L37.9878 27.6023L37.9959 27.5969L36.903 25.922ZM38.3031 25.4223L38.0858 23.4341L38.0757 23.4352L38.0655 23.4365L38.3031 25.4223ZM39.3996 25.3158L39.564 27.3091L39.564 27.3091L39.3996 25.3158ZM41.3179 25.2346L41.3192 27.2346L41.3226 27.2346L41.3179 25.2346ZM42.4195 25.2481L42.4884 23.2492L42.4782 23.2489L42.468 23.2486L42.4195 25.2481ZM43.8168 25.6293L42.8191 27.3627L42.8401 27.3747L42.8613 27.3863L43.8168 25.6293ZM44.8557 26.5262L43.2588 27.7302L43.2827 27.762L43.3079 27.7928L44.8557 26.5262ZM45.5493 27.7779L43.663 28.4428L43.663 28.4428L45.5493 27.7779ZM45.8725 29.2656L47.8657 29.1012L47.8648 29.09L47.8637 29.0788L45.8725 29.2656ZM46.0823 31.8591L44.0885 32.0162L44.0885 32.0162L46.0823 31.8591ZM46.2617 36.0953L44.2617 36.1072L44.2617 36.1072L46.2617 36.0953ZM49.8853 41.3067C49.8869 41.3448 49.8806 41.318 49.9005 41.2485C49.9222 41.1728 49.9666 41.0772 50.0414 40.9862L53.1325 43.5249C53.7344 42.7921 53.9151 41.9253 53.8817 41.1375L49.8853 41.3067ZM50.0414 40.9862C50.1196 40.891 50.2292 40.8025 50.3583 40.7426C50.4815 40.6856 50.5734 40.677 50.5993 40.6759L50.7684 44.6723C51.6367 44.6356 52.504 44.2901 53.1325 43.5249L50.0414 40.9862ZM50.5993 40.6759L48.1415 40.78L48.3106 44.7764L50.7684 44.6723L50.5993 40.6759ZM48.1415 40.78C48.1673 40.7789 48.2597 40.7796 48.3872 40.8261C48.5209 40.8748 48.6376 40.9538 48.7235 41.042L45.8581 43.8328C46.5489 44.5422 47.4424 44.8131 48.3106 44.7764L48.1415 40.78ZM48.7235 41.042C48.8057 41.1264 48.8581 41.2179 48.8861 41.2915C48.9118 41.359 48.9078 41.3862 48.9062 41.3481L44.9098 41.5173C44.9431 42.3051 45.1964 43.1535 45.858 43.8328L48.7235 41.042ZM48.9062 41.3481L48.2735 26.4015L44.2771 26.5707L44.9098 41.5173L48.9062 41.3481ZM48.2735 26.4015C48.2719 26.3634 48.2782 26.3902 48.2583 26.4597C48.2366 26.5354 48.1921 26.631 48.1174 26.722L45.0263 24.1833C44.4244 24.9161 44.2437 25.7829 44.2771 26.5707L48.2735 26.4015ZM48.1174 26.722C48.0392 26.8171 47.9296 26.9057 47.8004 26.9655C47.6773 27.0226 47.5854 27.0312 47.5595 27.0323L47.3903 23.0358C46.5221 23.0726 45.6547 23.4181 45.0263 24.1833L48.1174 26.722ZM47.5595 27.0323L50.0173 26.9282L49.8481 22.9318L47.3903 23.0358L47.5595 27.0323ZM50.0173 26.9282C49.9915 26.9293 49.8991 26.9285 49.7716 26.8821C49.6379 26.8334 49.5211 26.7544 49.4352 26.6662L52.3007 23.8753C51.6098 23.166 50.7164 22.895 49.8481 22.9318L50.0173 26.9282ZM49.4352 26.6662C49.353 26.5818 49.3007 26.4903 49.2726 26.4167C49.2469 26.3492 49.251 26.3219 49.2526 26.3601L53.249 26.1909C53.2157 25.4031 52.9624 24.5547 52.3007 23.8753L49.4352 26.6662ZM49.2526 26.3601L49.2831 27.0794L53.2795 26.9102L53.249 26.1909L49.2526 26.3601ZM49.2831 27.0794C49.3084 27.6789 49.5191 28.399 50.1291 28.9595L52.8354 26.014C52.9992 26.1646 53.1169 26.3429 53.1897 26.5213C53.2594 26.6917 53.2762 26.8318 53.2795 26.9102L49.2831 27.0794ZM50.2084 29.0286C50.4262 29.2086 50.6571 29.371 50.8982 29.5174L52.9743 26.0983C52.8866 26.0451 52.8148 25.9934 52.7561 25.9449L50.2084 29.0286ZM51.0025 29.5765C51.0156 29.5834 51.0222 29.5879 51.0237 29.5889C51.0251 29.5899 51.0221 29.588 51.0163 29.5826L53.7225 26.637C53.4601 26.3959 53.172 26.1986 52.87 26.0392L51.0025 29.5765ZM51.1872 29.723C50.9808 29.5718 50.819 29.3709 50.7157 29.1499C50.6181 28.9409 50.5955 28.7636 50.5913 28.6655L54.5877 28.4963C54.56 27.8422 54.2993 27.0446 53.5516 26.4966L51.1872 29.723ZM50.5913 28.6655L50.6776 30.7037L54.674 30.5345L54.5877 28.4963L50.5913 28.6655ZM50.6776 30.7037C50.6733 30.603 50.6822 30.4384 50.7512 30.2424C50.823 30.0383 50.9426 29.8502 51.0975 29.6984L53.8967 32.5558C54.5066 31.9583 54.702 31.1971 54.674 30.5345L50.6776 30.7037ZM51.0244 29.774C51.0095 29.7901 50.9758 29.8231 50.9131 29.8689L53.2707 33.1003C53.5186 32.9194 53.7551 32.714 53.9699 32.4802L51.0244 29.774ZM51.012 29.8012C50.7448 29.9725 50.495 30.17 50.2662 30.3942L53.0654 33.2516C53.0928 33.2247 53.1271 33.1966 53.1718 33.168L51.012 29.8012ZM50.275 30.3856C49.6256 31.014 49.4832 31.8085 49.508 32.3947L53.5045 32.2255C53.5112 32.3853 53.4752 32.855 53.0566 33.2602L50.275 30.3856ZM49.508 32.3947L49.6045 34.6726L53.6009 34.5034L53.5045 32.2255L49.508 32.3947ZM49.6045 34.6726C49.6299 35.2721 49.8405 35.9922 50.4505 36.5527L53.1568 33.6072C53.3207 33.7578 53.4383 33.9361 53.5111 34.1145C53.5808 34.2849 53.5976 34.425 53.6009 34.5034L49.6045 34.6726ZM50.5298 36.6218C50.7477 36.8018 50.9786 36.9642 51.2196 37.1106L53.2957 33.6915C53.208 33.6383 53.1363 33.5866 53.0775 33.5381L50.5298 36.6218ZM51.3239 37.1697C51.337 37.1766 51.3436 37.1811 51.3451 37.1821C51.3465 37.1831 51.3435 37.1812 51.3377 37.1758L54.044 34.2302C53.7815 33.9891 53.4934 33.7918 53.1914 33.6324L51.3239 37.1697ZM51.5086 37.3162C51.3022 37.165 51.1404 36.9641 51.0372 36.7431C50.9395 36.5341 50.9169 36.3568 50.9127 36.2587L54.9091 36.0895C54.8815 35.4354 54.6208 34.6378 53.873 34.0898L51.5086 37.3162ZM50.9127 36.2587L50.999 38.2969L54.9954 38.1277L54.9091 36.0895L50.9127 36.2587ZM50.999 38.2969C50.9947 38.1962 51.0037 38.0316 51.0726 37.8356C51.1444 37.6315 51.264 37.4434 51.4189 37.2916L54.2181 40.149C54.8281 39.5515 55.0235 38.7903 54.9954 38.1277L50.999 38.2969ZM51.3458 37.3672C51.3309 37.3833 51.2972 37.4163 51.2345 37.4621L53.5921 40.6935C53.84 40.5126 54.0765 40.3072 54.2913 40.0734L51.3458 37.3672ZM51.3334 37.3944C51.0662 37.5657 50.8165 37.7632 50.5876 37.9874L53.3868 40.8448C53.4142 40.8179 53.4485 40.7898 53.4932 40.7612L51.3334 37.3944ZM50.5965 37.9788C49.947 38.6072 49.8047 39.4017 49.8295 39.9879L53.8259 39.8187C53.8327 39.9785 53.7967 40.4482 53.378 40.8534L50.5965 37.9788ZM49.8295 39.9879L49.8853 41.3067L53.8817 41.1375L53.8259 39.8187L49.8295 39.9879ZM43.1252 38.6412C43.4307 35.7059 43.3002 32.6926 42.7458 29.6079L38.8089 30.3155C39.3019 33.0584 39.4104 35.6934 39.1467 38.2271L43.1252 38.6412ZM40.6928 27.9635L40.0933 27.9889L40.2625 31.9853L40.8619 31.9599L40.6928 27.9635ZM38.2094 30.3409C38.7024 33.0838 38.811 35.7188 38.5473 38.2525L42.5258 38.6666C42.8313 35.7313 42.7007 32.718 42.1463 29.6333L38.2094 30.3409ZM40.6211 40.4577L41.2206 40.4323L41.0514 36.4359L40.4519 36.4613L40.6211 40.4577ZM44.2718 38.6766C44.2682 39.0229 44.2236 39.3574 44.1388 39.6838L48.0102 40.6899C48.1779 40.0448 48.2647 39.3861 48.2716 38.7177L44.2718 38.6766ZM44.1388 39.6838C44.0652 39.9671 43.9576 40.2044 43.822 40.4093L47.1581 42.6162C47.5494 42.0247 47.8314 41.3781 48.0102 40.6899L44.1388 39.6838ZM43.7971 40.4479C43.6979 40.6056 43.5795 40.7258 43.4301 40.8243L45.6313 44.1641C46.2609 43.7492 46.7821 43.2151 47.1831 42.5776L43.7971 40.4479ZM43.3901 40.8513C43.2961 40.9166 43.1599 40.9792 42.933 41.0063L43.4082 44.978C44.2169 44.8812 44.9875 44.6119 45.6713 44.1371L43.3901 40.8513ZM42.9533 41.004C42.569 41.046 42.2214 41.0797 41.9097 41.1054L42.2385 45.0919C42.5917 45.0627 42.9751 45.0254 43.3879 44.9803L42.9533 41.004ZM41.8239 41.1143C41.5601 41.1476 41.2962 41.1698 41.0321 41.181L41.2012 45.1774C41.5765 45.1615 41.9509 45.13 42.3243 45.0829L41.8239 41.1143ZM41.0321 41.181C40.7834 41.1915 40.5165 41.192 40.2308 41.1812L40.0808 45.1784C40.4634 45.1928 40.8372 45.1928 41.2012 45.1774L41.0321 41.181ZM40.1512 41.1798C39.8384 41.1806 39.4892 41.1764 39.1028 41.167L39.0057 45.1658C39.4208 45.1759 39.806 45.1807 40.1605 45.1798L40.1512 41.1798ZM39.1232 41.1676C38.893 41.1597 38.7168 41.1075 38.5644 41.0255L36.6695 44.5482C37.391 44.9363 38.173 45.1372 38.9853 45.1652L39.1232 41.1676ZM38.5471 41.0164C38.3527 40.9142 38.1757 40.7758 38.0112 40.5854L34.9851 43.2013C35.466 43.7577 36.0349 44.2149 36.6867 44.5574L38.5471 41.0164ZM38.039 40.6183C37.8648 40.4079 37.7153 40.1609 37.5945 39.8659L33.8931 41.3824C34.1592 42.0319 34.5126 42.631 34.9573 43.1685L38.039 40.6183ZM37.6127 39.912C37.5029 39.6239 37.438 39.3285 37.4167 39.0193L33.4261 39.2936C33.4744 39.9957 33.6243 40.6788 33.8749 41.3363L37.6127 39.912ZM37.4146 38.9921C37.3325 37.9963 37.2628 37.1343 37.2054 36.4059L33.2177 36.7202C33.2756 37.4548 33.3458 38.3218 33.4282 39.3208L37.4146 38.9921ZM37.2079 36.4421C37.1642 35.7212 37.1283 35.0276 37.1001 34.3612L33.1037 34.5303C33.133 35.2227 33.1702 35.9406 33.2152 36.6839L37.2079 36.4421ZM37.1001 34.3612C37.0719 33.6948 37.0491 33.0006 37.0316 32.2786L33.0328 32.3751C33.0508 33.1195 33.0744 33.8379 33.1037 34.5303L37.1001 34.3612ZM37.0322 32.3149C37.0278 31.5842 37.0245 30.7194 37.0222 29.7203L33.0222 29.7296C33.0245 30.732 33.0279 31.6018 33.0323 32.3387L37.0322 32.3149ZM37.0219 29.6929C37.017 29.3831 37.0567 29.0832 37.1418 28.7869L33.2969 27.6836C33.1029 28.3599 33.0112 29.0532 33.0224 29.7569L37.0219 29.6929ZM37.1275 28.8344C37.223 28.5302 37.3511 28.2715 37.5068 28.0471L34.2207 25.7665C33.823 26.3396 33.5215 26.9664 33.3112 27.6361L37.1275 28.8344ZM37.4819 28.0822C37.6298 27.8786 37.7945 27.7257 37.9795 27.6075L35.8265 24.2364C35.2059 24.6327 34.6778 25.1364 34.2456 25.7314L37.4819 28.0822ZM37.9959 27.5969C38.1409 27.5024 38.3121 27.4355 38.5407 27.4081L38.0655 23.4365C37.2585 23.533 36.4963 23.7993 35.8101 24.247L37.9959 27.5969ZM38.5205 27.4105C38.9047 27.3685 39.2523 27.3348 39.564 27.3091L39.2352 23.3226C38.882 23.3517 38.4986 23.389 38.0858 23.4341L38.5205 27.4105ZM39.564 27.3091C39.8722 27.2836 40.1649 27.2652 40.4425 27.2535L40.2733 23.257C39.9381 23.2712 39.592 23.2932 39.2352 23.3226L39.564 27.3091ZM40.4425 27.2535C40.7344 27.2411 41.0267 27.2348 41.3192 27.2346L41.3166 23.2346C40.9686 23.2349 40.6208 23.2423 40.2733 23.257L40.4425 27.2535ZM41.3226 27.2346C41.6353 27.2339 41.9845 27.2381 42.3709 27.2475L42.468 23.2486C42.0529 23.2386 41.6677 23.2338 41.3132 23.2346L41.3226 27.2346ZM42.3505 27.2469C42.5789 27.2547 42.72 27.3056 42.8191 27.3627L44.8145 23.8959C44.093 23.4806 43.3024 23.2773 42.4884 23.2492L42.3505 27.2469ZM42.8613 27.3863C43.0185 27.4718 43.1466 27.5815 43.2588 27.7302L46.4526 25.3221C45.9992 24.7207 45.4348 24.2326 44.7724 23.8723L42.8613 27.3863ZM43.3079 27.7928C43.4458 27.9613 43.5674 28.1715 43.663 28.4428L47.4355 27.1131C47.1975 26.4377 46.8566 25.8133 46.4035 25.2596L43.3079 27.7928ZM43.663 28.4428C43.7734 28.756 43.8473 29.0909 43.8812 29.4524L47.8637 29.0788C47.8004 28.4035 47.6588 27.7466 47.4355 27.1131L43.663 28.4428ZM43.8792 29.43C43.9613 30.4258 44.0311 31.2877 44.0885 32.0162L48.0761 31.7019C48.0182 30.9673 47.9481 30.1003 47.8657 29.1012L43.8792 29.43ZM44.0885 32.0162C44.1444 32.7255 44.1861 33.4067 44.2137 34.0601L48.2102 33.8909C48.1803 33.1855 48.1356 32.4557 48.0761 31.7019L44.0885 32.0162ZM44.2137 34.0601C44.2414 34.7134 44.2574 35.3957 44.2617 36.1072L48.2616 36.0833C48.2571 35.3272 48.24 34.5963 48.2102 33.8909L44.2137 34.0601ZM44.2617 36.1072C44.266 36.8379 44.2694 37.7026 44.2717 38.7018L48.2717 38.6925C48.2694 37.6901 48.266 36.8203 48.2616 36.0833L44.2617 36.1072Z" fill="white" mask="url(#path-6-outside-2_28_781)"/>
    <path d="M18.8866 5C18.9573 5.09543 20.5251 5.73981 20.6965 8.2656" stroke="white" stroke-width="1.25" stroke-linecap="round"/>
    <path d="M36.9825 5.09926C37.0806 5.14594 38.4371 4.80769 39.9502 7.06249" stroke="white" stroke-width="1.25" stroke-linecap="round"/>
    <path d="M44.659 38.5247C44.659 38.5247 44.477 39.9369 42.6203 41.3734" stroke="white" stroke-width="1.41" stroke-linecap="round"/>
    <path d="M28 28.0499C28.5161 27.9037 29.9355 27.9524 30 30" stroke="white" stroke-linecap="round"/>
</svg>
