<svg width="19" height="20" viewBox="0 0 19 20" fill="none" xmlns="http://www.w3.org/2000/svg">
    <path fill-rule="evenodd" clip-rule="evenodd" d="M9.97975 19.8838C11.9083 18.8992 19 14.8732 19 8.87563C19 3.55025 14.5671 0 9.5 0C4.60275 0 0 3.55025 0 8.87563C0 14.8732 7.09175 18.8992 9.02025 19.8838C9.16855 19.9601 9.33306 20 9.5 20C9.66694 20 9.83145 19.9601 9.97975 19.8838ZM9.22569 12.73L5.90188 9.24249C5.69307 9.02156 5.53388 8.75885 5.43489 8.47184C5.3359 8.18483 5.29938 7.8801 5.32777 7.57793C5.35615 7.27576 5.44879 6.98308 5.59951 6.71936C5.75023 6.45564 5.95558 6.22694 6.2019 6.04847C6.44822 5.87 6.72985 5.74586 7.02806 5.6843C7.32627 5.62274 7.63421 5.62518 7.9314 5.69146C8.22859 5.75773 8.5082 5.88633 8.75164 6.06868C8.99508 6.25103 9.19676 6.48295 9.34325 6.74903L9.42637 6.9005C9.43342 6.91389 9.444 6.9251 9.45698 6.93293C9.46995 6.94075 9.48483 6.94489 9.5 6.94489C9.51517 6.94489 9.53005 6.94075 9.54302 6.93293C9.556 6.9251 9.56658 6.91389 9.57363 6.9005L9.65675 6.74903C10.4381 5.31472 12.4794 5.24609 13.3546 6.62595C13.8807 7.45434 13.775 8.53125 13.0981 9.2413L9.77431 12.7288C9.66506 12.8436 9.60925 12.9016 9.54275 12.9146C9.51448 12.9198 9.48552 12.9198 9.45725 12.9146C9.39075 12.9016 9.33494 12.8436 9.22569 12.7288" fill="#6ECEC9"/>
</svg>
