<svg width="32" height="35" viewBox="0 0 32 35" fill="none" xmlns="http://www.w3.org/2000/svg">
    <g opacity="0.5">
        <path d="M19.0096 34.2256C25.3005 34.2256 30.4003 33.1353 30.4003 31.7905C30.4003 30.4456 25.3005 29.3554 19.0096 29.3554C12.7187 29.3554 7.6189 30.4456 7.6189 31.7905C7.6189 33.1353 12.7187 34.2256 19.0096 34.2256Z" fill="#888888"/>
    </g>
    <path d="M6.1162 23.0384C5.95985 23.8202 6.33981 24.7266 7.1838 24.9187C7.94351 25.0918 8.89615 24.6896 9.06406 23.8511C9.10862 23.6281 9.16704 23.4085 9.21853 23.1872C7.9929 22.9817 7.00642 22.6008 6.30282 22.2541C6.23977 22.5153 6.16895 22.7744 6.11599 23.0384H6.1162Z" fill="#6ECEC9"/>
    <path d="M13.6963 12.5839C13.1263 12.014 12.1003 11.9787 11.5346 12.5839C8.99886 15.2964 7.17429 18.6444 6.30298 22.2541C7.00658 22.601 7.99285 22.9818 9.21869 23.1871C9.36895 22.5439 9.53896 21.9056 9.7529 21.2798C9.83108 21.0507 9.91346 20.8229 10 20.5966C10.0385 20.4959 10.0782 20.3961 10.1179 20.296C10.127 20.2735 10.1472 20.2246 10.1606 20.1912C10.3365 19.7782 10.5299 19.372 10.735 18.9729C11.1408 18.1831 11.5989 17.42 12.106 16.691C12.229 16.5143 12.3561 16.3407 12.4835 16.1669C12.4999 16.1446 12.5484 16.0807 12.5646 16.0589C12.6224 15.9851 12.681 15.9117 12.7401 15.839C13.0452 15.4624 13.3655 15.0993 13.6963 14.7454C14.2597 14.1424 14.2938 13.1812 13.6963 12.5837V12.5839Z" fill="#DBDCDC"/>
    <path d="M31.9656 23.0384C32.122 23.8202 31.742 24.7266 30.898 24.9187C30.1383 25.0918 29.1857 24.6896 29.0177 23.8511C28.9732 23.6281 28.9148 23.4085 28.8633 23.1872C30.0889 22.9817 31.0754 22.6008 31.779 22.2541C31.842 22.5153 31.9129 22.7744 31.9658 23.0384H31.9656Z" fill="#6ECEC9"/>
    <path d="M24.3855 12.5839C24.9554 12.014 25.9814 11.9787 26.5472 12.5839C29.0829 15.2964 30.9075 18.6444 31.7788 22.2541C31.0752 22.601 30.0889 22.9818 28.8631 23.1871C28.7128 22.5439 28.5428 21.9056 28.3289 21.2798C28.2507 21.0507 28.1683 20.8229 28.0817 20.5966C28.0433 20.4959 28.0036 20.3961 27.9638 20.296C27.9548 20.2735 27.9346 20.2246 27.9212 20.1912C27.7453 19.7782 27.5519 19.372 27.3468 18.9729C26.941 18.1831 26.4829 17.42 25.9758 16.691C25.8528 16.5143 25.7257 16.3407 25.5983 16.1669C25.5819 16.1446 25.5334 16.0807 25.5172 16.0589C25.4594 15.9851 25.4008 15.9117 25.3417 15.839C25.0366 15.4624 24.7163 15.0993 24.3855 14.7454C23.8221 14.1424 23.788 13.1812 24.3855 12.5837V12.5839Z" fill="#DBDCDC"/>
    <path d="M19.0409 18.6375C19.0409 16.3831 17.2134 14.5556 14.9591 14.5556C12.7047 14.5556 10.8772 16.3831 10.8772 18.6375V29.0156C10.8772 31.27 12.7047 33.0975 14.9591 33.0975C17.2134 33.0975 19.0409 31.27 19.0409 29.0156V18.6375Z" fill="#46BCB3"/>
    <path d="M27.2044 8.16373C27.2044 3.65503 23.5495 0 19.0408 0C14.5322 0 10.8772 3.65503 10.8772 8.16373V20.8519C10.8772 25.3606 14.5322 29.0156 19.0408 29.0156C23.5495 29.0156 27.2044 25.3606 27.2044 20.8519V8.16373Z" fill="#6ECEC9"/>
    <path d="M27.1733 19.4615C27.1733 17.2072 25.3457 15.3796 23.0914 15.3796C20.837 15.3796 19.0095 17.2072 19.0095 19.4615V29.0156C19.0095 31.27 20.837 33.0975 23.0914 33.0975C25.3457 33.0975 27.1733 31.27 27.1733 29.0156V19.4615Z" fill="#6ECEC9"/>
    <path d="M16.8997 6.09119H16.674C15.5088 6.09119 14.5642 7.03576 14.5642 8.20094V10.8823C14.5642 12.0475 15.5088 12.9921 16.674 12.9921H16.8997C18.0649 12.9921 19.0094 12.0475 19.0094 10.8823V8.20094C19.0094 7.03576 18.0649 6.09119 16.8997 6.09119Z" fill="#EEEEEF"/>
    <path d="M21.345 6.09119H21.1193C19.9541 6.09119 19.0095 7.03576 19.0095 8.20094V10.8823C19.0095 12.0475 19.9541 12.9921 21.1193 12.9921H21.345C22.5102 12.9921 23.4547 12.0475 23.4547 10.8823V8.20094C23.4547 7.03576 22.5102 6.09119 21.345 6.09119Z" fill="#EEEEEF"/>
    <path d="M20.1864 7.74133H20.1862C19.5363 7.74133 19.0095 8.26814 19.0095 8.918V10.1653C19.0095 10.8151 19.5363 11.3419 20.1862 11.3419H20.1864C20.8363 11.3419 21.3631 10.8151 21.3631 10.1653V8.918C21.3631 8.26814 20.8363 7.74133 20.1864 7.74133Z" fill="#46BCB3"/>
    <path d="M15.7411 7.74133H15.7409C15.091 7.74133 14.5642 8.26814 14.5642 8.918V10.1653C14.5642 10.8151 15.091 11.3419 15.7409 11.3419H15.7411C16.3909 11.3419 16.9177 10.8151 16.9177 10.1653V8.918C16.9177 8.26814 16.3909 7.74133 15.7411 7.74133Z" fill="#46BCB3"/>
    <path d="M13.5111 4.36406C13.4415 4.36406 13.3715 4.34136 13.3131 4.29471C13.1759 4.185 13.1534 3.98515 13.2629 3.84791C14.9834 1.69234 17.25 1.00912 17.3456 0.981172C17.5141 0.931785 17.69 1.02846 17.7396 1.19658C17.789 1.36471 17.693 1.54124 17.5247 1.59084C17.5032 1.59735 15.35 2.25157 13.7597 4.24427C13.6969 4.32287 13.6044 4.36406 13.5111 4.36406Z" fill="#EEEEEF"/>
    <path d="M19.1933 12.5969C19.1933 12.5969 20.0133 16.4522 18.1929 16.2639C16.4333 16.0819 17.0631 13.3747 19.1933 12.5969Z" fill="#EEEEEF"/>
    <path d="M10.8773 13.3042C10.8773 13.3042 12.44 17.5502 18.5543 17.5502L17.3175 31.8129C17.3175 31.8129 11.4211 33.0648 8.98669 29.0157L10.8773 13.3042Z" fill="#DBDCDC"/>
    <path d="M27.2113 13.3042C27.2113 13.3042 25.6486 17.5502 19.5343 17.5502L20.994 31.8326C20.994 31.8326 26.6676 33.0648 29.1021 29.0157L27.2115 13.3042H27.2113Z" fill="#DBDCDC"/>
    <path d="M21.8121 25.3949C22.7212 25.3772 24.8812 25.211 27.0914 24.1301C27.3739 23.9921 27.708 24.1625 27.7442 24.4746L28.1361 27.8537C28.1361 27.8537 28.6031 29.4248 26.735 29.9767L23.0913 30.7835C23.0913 30.7835 21.9369 31.0806 21.6822 29.5522C21.4933 28.419 21.409 26.6791 21.3781 25.8549C21.3687 25.6048 21.562 25.3997 21.8121 25.3949Z" fill="#EEEEEF"/>
    <path d="M16.2696 25.3949C15.3604 25.3772 13.2005 25.211 10.9902 24.1301C10.7078 23.9921 10.3736 24.1625 10.3375 24.4746L9.94555 27.8537C9.94555 27.8537 9.47859 29.4248 11.3467 29.9767L14.9904 30.7835C14.9904 30.7835 16.1447 31.0806 16.3995 29.5522C16.5884 28.419 16.6727 26.6791 16.7035 25.8549C16.713 25.6048 16.5197 25.3997 16.2696 25.3949Z" fill="#EEEEEF"/>
    <path d="M20.5993 19.9563C20.8104 19.9563 20.9814 19.7852 20.9814 19.5742C20.9814 19.3632 20.8104 19.1921 20.5993 19.1921C20.3883 19.1921 20.2173 19.3632 20.2173 19.5742C20.2173 19.7852 20.3883 19.9563 20.5993 19.9563Z" fill="#EEEEEF"/>
    <path d="M20.7482 22.1429C20.9592 22.1429 21.1302 21.9718 21.1302 21.7608C21.1302 21.5498 20.9592 21.3787 20.7482 21.3787C20.5371 21.3787 20.3661 21.5498 20.3661 21.7608C20.3661 21.9718 20.5371 22.1429 20.7482 22.1429Z" fill="#EEEEEF"/>
    <path d="M20.9816 24.6206C21.1926 24.6206 21.3636 24.4496 21.3636 24.2386C21.3636 24.0276 21.1926 23.8565 20.9816 23.8565C20.7705 23.8565 20.5995 24.0276 20.5995 24.2386C20.5995 24.4496 20.7705 24.6206 20.9816 24.6206Z" fill="#EEEEEF"/>
    <path d="M18.1294 19.5931L17.4292 19.4871L17.4859 19.1095L18.1862 19.2154L18.1294 19.5931Z" fill="#C8C9CA"/>
    <path d="M17.8435 21.8104L17.1428 21.7045L17.1996 21.3268L17.9002 21.4328L17.8435 21.8104Z" fill="#C8C9CA"/>
    <path d="M17.4936 24.4802L16.7927 24.3743L16.8495 23.9966L17.5503 24.1026L17.4936 24.4802Z" fill="#C8C9CA"/>
    <path d="M18.5542 17.5502L16.3747 19.9563C16.3747 19.9563 11.4091 19.7297 10.8772 13.3042C10.8772 13.3042 12.4967 17.5502 18.5542 17.5502Z" fill="#EEEEEF"/>
    <path d="M19.5275 17.5502L21.707 19.9563C21.707 19.9563 26.6726 19.7297 27.2045 13.3042C27.2045 13.3042 25.585 17.5502 19.5275 17.5502Z" fill="#EEEEEF"/>
    <path d="M17.1979 13.743H15.8418C14.6319 13.743 13.6482 12.7592 13.6482 11.5493C13.6482 10.3395 14.6319 9.3551 15.8418 9.3551H17.1979C18.4078 9.3551 19.3916 10.3395 19.3916 11.5493C19.3916 12.7592 18.4078 13.743 17.1979 13.743ZM15.8418 10.1192C15.0537 10.1192 14.4125 10.761 14.4125 11.5493C14.4125 12.3376 15.0537 12.9786 15.8418 12.9786H17.1979C17.986 12.9786 18.6272 12.3374 18.6272 11.5493C18.6272 10.7613 17.986 10.1192 17.1979 10.1192H15.8418Z" fill="#DBDCDC"/>
    <path d="M22.1769 13.743H20.8208C19.6109 13.743 18.6272 12.7592 18.6272 11.5493C18.6272 10.3395 19.6109 9.3551 20.8208 9.3551H22.1769C23.3868 9.3551 24.3706 10.3395 24.3706 11.5493C24.3706 12.7592 23.3868 13.743 22.1769 13.743ZM20.8208 10.1192C20.0327 10.1192 19.3915 10.761 19.3915 11.5493C19.3915 12.3376 20.0327 12.9786 20.8208 12.9786H22.1769C22.965 12.9786 23.6062 12.3374 23.6062 11.5493C23.6062 10.7613 22.965 10.1192 22.1769 10.1192H20.8208Z" fill="#DBDCDC"/>
    <path d="M23.9875 11.9317C23.8061 11.9317 23.645 11.8018 23.6122 11.6166C23.5748 11.4084 23.7137 11.2098 23.9211 11.1732L27.1058 10.6066C27.3147 10.573 27.5127 10.7081 27.5492 10.9156C27.5866 11.1238 27.4477 11.3224 27.2403 11.359L24.0556 11.9256C24.0325 11.9293 24.01 11.9315 23.9877 11.9315L23.9875 11.9317Z" fill="#DBDCDC"/>
    <path d="M13.9087 11.8979C13.8862 11.8979 13.8639 11.8956 13.8408 11.892L10.8413 11.3591C10.6338 11.3225 10.4949 11.1239 10.5323 10.9156C10.5689 10.7082 10.7667 10.5737 10.9758 10.6067L13.9753 11.1397C14.1827 11.1762 14.3217 11.3748 14.2843 11.5831C14.2515 11.7682 14.0903 11.8981 13.9089 11.8981L13.9087 11.8979Z" fill="#DBDCDC"/>
    <path d="M9.74263 11.9316L5.95247 7.02807V4.63586H4.25419V7.02807L0.463815 11.9316C0.0353062 12.4858 0.4304 13.2905 1.13085 13.2905H9.07539C9.77584 13.2905 10.1709 12.4858 9.74242 11.9316H9.74263Z" fill="#6ECEC9"/>
    <path d="M9.07513 13.5765H1.13081C0.696412 13.5765 0.307623 13.334 0.116591 12.9444C-0.0744409 12.5548 -0.0282065 12.0996 0.2368 11.7562L3.96707 6.93014V1.68906C3.96707 1.06279 4.47691 0.553162 5.10297 0.553162C5.72902 0.553162 6.23886 1.063 6.23886 1.68906V6.93014L9.96914 11.7562C10.2348 12.0996 10.2804 12.5548 10.0893 12.9444C9.89831 13.3347 9.50931 13.5765 9.07513 13.5765ZM5.10297 1.12647C4.79257 1.12647 4.54017 1.37866 4.54017 1.68927V7.1258L0.690318 12.1071C0.557499 12.2788 0.535012 12.4974 0.630633 12.6922C0.726885 12.887 0.913503 13.0034 1.13081 13.0034H9.07513C9.29222 13.0034 9.47968 12.887 9.5753 12.6922C9.67092 12.4974 9.64844 12.2786 9.51562 12.1071L5.66577 7.1258V1.68927C5.66577 1.37887 5.41358 1.12647 5.10297 1.12647Z" fill="#F7F7F7"/>
    <path d="M5.1986 8.2326H5.00757V12.0965H5.1986V8.2326Z" fill="#F7F7F7"/>
    <path d="M5.7824 8.13708H4.42395V8.32812H5.7824V8.13708Z" fill="#F7F7F7"/>
    <path d="M5.7824 11.9869H4.42395V12.1779H5.7824V11.9869Z" fill="#F7F7F7"/>
    <path d="M5.49288 9.22675H4.71362V9.41778H5.49288V9.22675Z" fill="#F7F7F7"/>
    <path d="M5.49288 9.80737H4.71362V9.99841H5.49288V9.80737Z" fill="#F7F7F7"/>
    <path d="M5.49288 10.3874H4.71362V10.5784H5.49288V10.3874Z" fill="#F7F7F7"/>
    <path d="M5.49288 10.968H4.71362V11.159H5.49288V10.968Z" fill="#F7F7F7"/>
</svg>
