<svg width="20" height="20" viewBox="0 0 20 20" fill="none" xmlns="http://www.w3.org/2000/svg">
    <path d="M11.1111 6.66667H8.88889V4.44444H11.1111V6.66667ZM11.1111 15.5556H8.88889V8.88889H11.1111V15.5556ZM2.22222 0H17.7778C18.3671 0 18.9324 0.234126 19.3491 0.650874C19.7659 1.06762 20 1.63285 20 2.22222V17.7778C20 18.3667 19.7667 18.9333 19.3444 19.3444C18.9333 19.7667 18.3667 20 17.7778 20H2.22222C1.63333 20 1.06667 19.7667 0.655555 19.3444C0.233333 18.9333 0 18.3667 0 17.7778V2.22222C0 0.988889 0.988889 0 2.22222 0ZM17.7778 17.7778V2.22222H2.22222V17.7778H17.7778Z" fill="#6ECEC9"/>
</svg>
