<svg width="24" height="24" viewBox="0 0 24 24" fill="none" xmlns="http://www.w3.org/2000/svg">
    <path d="M22 22L17.1745 17.1745M17.1745 17.1745C17.9999 16.3491 18.6547 15.3692 19.1014 14.2907C19.5481 13.2123 19.778 12.0564 19.778 10.889C19.778 9.72172 19.5481 8.56583 19.1014 7.48737C18.6547 6.4089 17.9999 5.42898 17.1745 4.60356C16.3491 3.77814 15.3692 3.12338 14.2907 2.67667C13.2122 2.22995 12.0563 2.00003 10.889 2.00003C9.72169 2.00003 8.5658 2.22995 7.48734 2.67667C6.40887 3.12338 5.42895 3.77814 4.60353 4.60356C2.93652 6.27058 2 8.53153 2 10.889C2 13.2466 2.93652 15.5075 4.60353 17.1745C6.27055 18.8415 8.5315 19.7781 10.889 19.7781C13.2465 19.7781 15.5075 18.8415 17.1745 17.1745Z" stroke="#6ECEC9" stroke-width="3.125" stroke-linecap="round" stroke-linejoin="round"/>
</svg>
