<svg width="235" height="228" viewBox="0 0 235 228" fill="none" xmlns="http://www.w3.org/2000/svg">
    <path d="M176.734 0.69743C155.694 4.18235 139.062 21.6273 136.401 42.7876C134.568 57.3489 139.144 70.8278 147.652 80.8685C147.244 84.3186 145.942 91.2405 141.834 96.4295C140.139 98.5715 141.942 101.664 144.657 101.357C151.396 100.596 159.945 98.6831 165.035 93.9442C173.957 97.9547 184.25 99.456 195.085 97.2743C214.899 93.2854 230.552 77.0032 233.66 57.0321C238.87 23.5594 210.256 -4.85516 176.734 0.69743Z" fill="#6ECEC9"/>
    <path d="M161.18 44.16C161.18 44.5867 161.067 44.9267 160.84 45.18C160.613 45.4333 160.307 45.56 159.92 45.56H152.88C152.493 45.56 152.187 45.4333 151.96 45.18C151.733 44.9267 151.62 44.5867 151.62 44.16V29.2C151.62 28.7733 151.733 28.4333 151.96 28.18C152.187 27.9267 152.493 27.8 152.88 27.8H156.68C157.067 27.8 157.373 27.9267 157.6 28.18C157.827 28.4333 157.94 28.7733 157.94 29.2V39.92H159.92C160.307 39.92 160.613 40.0467 160.84 40.3C161.067 40.5533 161.18 40.8933 161.18 41.32V44.16ZM167.94 44.16C167.94 44.5867 167.827 44.9267 167.6 45.18C167.373 45.4333 167.067 45.56 166.68 45.56H162.96C162.573 45.56 162.267 45.4333 162.04 45.18C161.813 44.9267 161.7 44.5867 161.7 44.16V29.2C161.7 28.7733 161.813 28.4333 162.04 28.18C162.267 27.9267 162.573 27.8 162.96 27.8H166.68C167.067 27.8 167.373 27.9267 167.6 28.18C167.827 28.4333 167.94 28.7733 167.94 29.2V33.22C167.94 33.4333 168 33.6 168.12 33.72C168.253 33.84 168.4 33.9533 168.56 34.06C168.72 34.1533 168.86 34.26 168.98 34.38C169.113 34.4867 169.18 34.6467 169.18 34.86V37.9C169.18 38.1133 169.113 38.28 168.98 38.4C168.86 38.52 168.72 38.6333 168.56 38.74C168.4 38.8333 168.253 38.94 168.12 39.06C168 39.1667 167.94 39.3267 167.94 39.54V44.16ZM183.988 44.16C183.988 44.5867 183.874 44.9267 183.648 45.18C183.421 45.4333 183.114 45.56 182.728 45.56H181.288C180.901 45.56 180.594 45.4333 180.368 45.18C180.141 44.9267 180.028 44.5867 180.028 44.16V39.3H179.608C179.608 39.7267 179.601 40.1733 179.588 40.64C179.574 41.0933 179.568 41.48 179.568 41.8C179.568 42.2533 179.501 42.6933 179.368 43.12C179.234 43.5467 179.048 43.9267 178.808 44.26C178.568 44.6067 178.274 44.8933 177.928 45.12C177.594 45.36 177.221 45.5067 176.808 45.56C176.381 45.6267 175.974 45.66 175.588 45.66C175.214 45.66 174.814 45.6267 174.388 45.56C173.961 45.5067 173.581 45.36 173.248 45.12C172.914 44.8933 172.628 44.6067 172.388 44.26C172.148 43.9267 171.961 43.5467 171.828 43.12C171.708 42.6933 171.641 42.2533 171.628 41.8C171.601 40.8667 171.574 39.9867 171.548 39.16C171.534 38.32 171.528 37.4933 171.528 36.68C171.528 35.8667 171.534 35.0467 171.548 34.22C171.574 33.38 171.601 32.4933 171.628 31.56C171.641 31.1467 171.708 30.7267 171.828 30.3C171.961 29.8733 172.148 29.4867 172.388 29.14C172.628 28.78 172.914 28.48 173.248 28.24C173.581 28 173.961 27.8533 174.388 27.8C174.814 27.7467 175.214 27.72 175.588 27.72C175.974 27.72 176.381 27.7467 176.808 27.8C177.221 27.8533 177.594 27.9933 177.928 28.22C178.274 28.4333 178.568 28.7133 178.808 29.06C179.048 29.3933 179.234 29.78 179.368 30.22C179.501 30.6467 179.568 31.0933 179.568 31.56C179.568 31.8667 179.568 32.08 179.568 32.2C179.581 32.32 179.588 32.4267 179.588 32.52C179.588 32.6 179.588 32.7067 179.588 32.84C179.601 32.96 179.608 33.1667 179.608 33.46H180.028V29.2C180.028 28.7733 180.141 28.4333 180.368 28.18C180.594 27.9267 180.901 27.8 181.288 27.8H182.728C183.114 27.8 183.421 27.9267 183.648 28.18C183.874 28.4333 183.988 28.7733 183.988 29.2V44.16ZM188.388 44.16C188.388 44.5867 188.274 44.9267 188.048 45.18C187.821 45.4333 187.514 45.56 187.128 45.56H185.688C185.314 45.56 185.008 45.4333 184.768 45.18C184.541 44.9267 184.428 44.5867 184.428 44.16V29.2C184.428 28.7733 184.541 28.4333 184.768 28.18C185.008 27.9267 185.314 27.8 185.688 27.8H187.128C187.514 27.8 187.821 27.9267 188.048 28.18C188.274 28.4333 188.388 28.7733 188.388 29.2V44.16ZM175.828 41.7C175.921 40.82 175.994 39.9667 176.048 39.14C176.101 38.3133 176.128 37.4933 176.128 36.68C176.128 35.8533 176.101 35.0267 176.048 34.2C175.994 33.3733 175.921 32.52 175.828 31.64H175.388C175.481 32.52 175.548 33.3733 175.588 34.2C175.641 35.0267 175.668 35.8533 175.668 36.68C175.668 37.4933 175.641 38.3133 175.588 39.14C175.548 39.9667 175.481 40.82 175.388 41.7H175.828ZM203.456 44.16C203.456 44.5867 203.342 44.9267 203.116 45.18C202.889 45.4333 202.582 45.56 202.196 45.56H200.216C199.829 45.56 199.522 45.4333 199.296 45.18C199.069 44.9267 198.956 44.5867 198.956 44.16V39.3H198.136C197.962 40.3 197.722 41.1733 197.416 41.92C197.109 42.6533 196.729 43.2667 196.276 43.76C195.822 44.2667 195.296 44.6533 194.696 44.92C194.109 45.2 193.449 45.3867 192.716 45.48C192.342 45.5333 192.036 45.4333 191.796 45.18C191.569 44.9267 191.456 44.5867 191.456 44.16V40.76C191.456 40.3467 191.676 39.9867 192.116 39.68C192.489 39.4267 192.789 39 193.016 38.4C193.242 37.7867 193.356 36.9133 193.356 35.78V33.04H192.716C192.329 33.04 192.022 32.9133 191.796 32.66C191.569 32.4067 191.456 32.0667 191.456 31.64V29.2C191.456 28.7733 191.569 28.4333 191.796 28.18C192.022 27.9267 192.329 27.8 192.716 27.8H197.216C197.589 27.8 197.889 27.9267 198.116 28.18C198.356 28.4333 198.476 28.7733 198.476 29.2V33.46H198.956V29.2C198.956 28.7733 199.069 28.4333 199.296 28.18C199.522 27.9267 199.829 27.8 200.216 27.8H202.196C202.582 27.8 202.889 27.9267 203.116 28.18C203.342 28.4333 203.456 28.7733 203.456 29.2V44.16ZM208.396 44.16C208.396 44.5867 208.282 44.9267 208.056 45.18C207.829 45.4333 207.522 45.56 207.136 45.56H205.156C204.782 45.56 204.476 45.4333 204.236 45.18C204.009 44.9267 203.896 44.5867 203.896 44.16V29.2C203.896 28.7733 204.009 28.4333 204.236 28.18C204.476 27.9267 204.782 27.8 205.156 27.8H207.136C207.522 27.8 207.829 27.9267 208.056 28.18C208.282 28.4333 208.396 28.7733 208.396 29.2V44.16Z" fill="white"/>
    <path d="M213.574 64.8224C213.386 63.1918 213.233 61.5681 213.115 59.9483C212.994 58.3286 212.969 56.6346 213.037 54.8744C213.073 54.0165 213.404 53.3249 214.034 52.7945C214.664 52.2672 215.486 52 216.507 52C217.529 52 218.355 52.2672 218.981 52.7945C219.611 53.3249 219.942 54.0175 219.977 54.8744C220.027 56.6346 219.995 58.3286 219.874 59.9483C219.757 61.5681 219.603 63.1918 219.415 64.8224C219.33 65.5952 219.055 66.2176 218.586 66.6846C218.12 67.1556 217.425 67.3911 216.507 67.3911C215.589 67.3911 214.892 67.1556 214.414 66.6846C213.937 66.2176 213.66 65.5952 213.574 64.8224ZM213.115 72.0019C213.115 70.9442 213.425 70.1042 214.045 69.4828C214.668 68.8604 215.486 68.5517 216.508 68.5517C217.531 68.5517 218.37 68.8614 218.982 69.4828C219.594 70.1051 219.9 70.9442 219.9 72.0019C219.9 72.4373 219.815 72.8351 219.648 73.1972C219.477 73.5593 219.242 73.875 218.946 74.1421C218.647 74.4093 218.291 74.62 217.874 74.7714C217.454 74.9228 217.002 75 216.507 75C216.012 75 215.56 74.9228 215.144 74.7714C214.724 74.62 214.368 74.4093 214.073 74.1421C213.774 73.875 213.538 73.5584 213.368 73.1972C213.201 72.8351 213.115 72.4383 213.115 72.0019Z" fill="white"/>
    <path d="M168.38 70.32C168.38 70.6933 168.28 70.9933 168.08 71.22C167.88 71.4467 167.607 71.56 167.26 71.56H152.88C152.493 71.56 152.187 71.4333 151.96 71.18C151.733 70.9267 151.62 70.5867 151.62 70.16V67.94C151.62 67.5133 151.733 67.16 151.96 66.88C152.187 66.6 152.487 66.4467 152.86 66.42C154.353 66.2733 155.8 66.2133 157.2 66.24C158.6 66.2533 160.067 66.3533 161.6 66.54V66.16C160.04 65.9867 158.547 65.8933 157.12 65.88C155.707 65.8533 154.24 65.9067 152.72 66.04C152.387 66.0667 152.12 65.98 151.92 65.78C151.72 65.58 151.62 65.2933 151.62 64.92C151.62 64.5333 151.72 64.2267 151.92 64C152.12 63.76 152.393 63.64 152.74 63.64H156.48V63.26H152.94C152.54 63.26 152.22 63.1267 151.98 62.86C151.74 62.58 151.62 62.22 151.62 61.78V61.5C151.62 61.14 151.713 60.8533 151.9 60.64C152.1 60.4133 152.367 60.3 152.7 60.3H167.3C167.633 60.3 167.893 60.4133 168.08 60.64C168.28 60.8533 168.38 61.14 168.38 61.5V62.06C168.38 62.42 168.28 62.7133 168.08 62.94C167.893 63.1533 167.633 63.26 167.3 63.26H163.52V63.64H167.12C167.507 63.64 167.813 63.7667 168.04 64.02C168.267 64.2733 168.38 64.6133 168.38 65.04V67.26C168.38 67.6867 168.267 68.04 168.04 68.32C167.813 68.6 167.513 68.7533 167.14 68.78C165.647 68.9267 164.2 68.9933 162.8 68.98C161.4 68.9533 159.933 68.8467 158.4 68.66V69.04C159.96 69.2267 161.447 69.3267 162.86 69.34C164.287 69.3667 165.76 69.3067 167.28 69.16C167.613 69.1333 167.88 69.22 168.08 69.42C168.28 69.62 168.38 69.9067 168.38 70.28V70.32ZM168.38 58.52C168.38 58.9467 168.267 59.2867 168.04 59.54C167.813 59.7933 167.507 59.92 167.12 59.92H152.88C152.493 59.92 152.187 59.7933 151.96 59.54C151.733 59.2867 151.62 58.9467 151.62 58.52V55.2C151.62 54.7733 151.733 54.4333 151.96 54.18C152.187 53.9267 152.493 53.8 152.88 53.8H167.12C167.507 53.8 167.813 53.9267 168.04 54.18C168.267 54.4333 168.38 54.7733 168.38 55.2V58.52ZM161.6 56.62C161.387 56.6733 161.14 56.7133 160.86 56.74C160.58 56.7667 160.293 56.78 160 56.78C159.707 56.78 159.42 56.7667 159.14 56.74C158.86 56.7133 158.613 56.6733 158.4 56.62V57.02C158.613 57.0733 158.86 57.1133 159.14 57.14C159.42 57.1667 159.707 57.18 160 57.18C160.293 57.18 160.58 57.1667 160.86 57.14C161.14 57.1133 161.387 57.0733 161.6 57.02V56.62ZM182.668 67.4C182.641 67.9067 182.554 68.4 182.408 68.88C182.261 69.36 182.048 69.7933 181.768 70.18C181.488 70.5667 181.141 70.88 180.728 71.12C180.328 71.3733 179.861 71.52 179.328 71.56C178.914 71.5867 178.541 71.6067 178.208 71.62C177.874 71.6467 177.548 71.66 177.228 71.66C176.908 71.66 176.581 71.6467 176.248 71.62C175.914 71.6067 175.548 71.5867 175.148 71.56C174.601 71.52 174.114 71.3733 173.688 71.12C173.261 70.88 172.894 70.5667 172.588 70.18C172.281 69.7933 172.041 69.36 171.868 68.88C171.694 68.4 171.601 67.9067 171.588 67.4C171.548 66.4 171.514 65.5333 171.488 64.8C171.461 64.0667 171.448 63.36 171.448 62.68C171.448 62 171.461 61.2933 171.488 60.56C171.514 59.8267 171.548 58.96 171.588 57.96C171.601 57.4533 171.694 56.96 171.868 56.48C172.041 56 172.281 55.5667 172.588 55.18C172.894 54.7933 173.261 54.48 173.688 54.24C174.114 53.9867 174.601 53.84 175.148 53.8C175.548 53.7733 175.914 53.7533 176.248 53.74C176.581 53.7267 176.908 53.72 177.228 53.72C177.548 53.72 177.874 53.7267 178.208 53.74C178.541 53.7533 178.914 53.7733 179.328 53.8C179.861 53.84 180.328 53.9867 180.728 54.24C181.141 54.48 181.488 54.7933 181.768 55.18C182.048 55.5533 182.261 55.98 182.408 56.46C182.554 56.94 182.641 57.44 182.668 57.96C182.681 58.2133 182.688 58.44 182.688 58.64C182.701 58.84 182.708 59.0467 182.708 59.26H183.148V55.2C183.148 54.7733 183.261 54.4333 183.488 54.18C183.714 53.9267 184.021 53.8 184.408 53.8H187.128C187.514 53.8 187.821 53.9267 188.048 54.18C188.274 54.4333 188.388 54.7733 188.388 55.2V70.16C188.388 70.5867 188.274 70.9267 188.048 71.18C187.821 71.4333 187.514 71.56 187.128 71.56H184.408C184.021 71.56 183.714 71.4333 183.488 71.18C183.261 70.9267 183.148 70.5867 183.148 70.16V65.1H182.748L182.668 67.4ZM177.408 66.92C177.608 65.4667 177.708 64.0533 177.708 62.68C177.708 61.3067 177.608 59.8933 177.408 58.44H176.828C177.014 59.8933 177.108 61.3067 177.108 62.68C177.108 64.0533 177.014 65.4667 176.828 66.92H177.408ZM202.376 70.16C202.376 70.5867 202.262 70.9267 202.036 71.18C201.809 71.4333 201.502 71.56 201.116 71.56H192.896C192.509 71.56 192.202 71.4333 191.976 71.18C191.749 70.9267 191.636 70.5867 191.636 70.16V68.32C191.636 67.8933 191.749 67.5533 191.976 67.3C192.202 67.0467 192.509 66.92 192.896 66.92H194.356V65.48H192.896C192.509 65.48 192.202 65.3533 191.976 65.1C191.749 64.8467 191.636 64.5067 191.636 64.08V55.2C191.636 54.7733 191.749 54.4333 191.976 54.18C192.202 53.9267 192.509 53.8 192.896 53.8H195.436C195.822 53.8 196.129 53.9267 196.356 54.18C196.582 54.4333 196.696 54.7733 196.696 55.2V55.6H197.296V55.2C197.296 54.7733 197.409 54.4333 197.636 54.18C197.862 53.9267 198.169 53.8 198.556 53.8H201.116C201.502 53.8 201.809 53.9267 202.036 54.18C202.262 54.4333 202.376 54.7733 202.376 55.2V64.08C202.376 64.5067 202.262 64.8467 202.036 65.1C201.809 65.3533 201.502 65.48 201.116 65.48H199.616V66.92H201.116C201.502 66.92 201.809 67.0467 202.036 67.3C202.262 67.5533 202.376 67.8933 202.376 68.32V70.16ZM207.956 70.16C207.956 70.5867 207.842 70.9267 207.616 71.18C207.389 71.4333 207.082 71.56 206.696 71.56H204.236C203.849 71.56 203.542 71.4333 203.316 71.18C203.089 70.9267 202.976 70.5867 202.976 70.16V55.2C202.976 54.7733 203.089 54.4333 203.316 54.18C203.542 53.9267 203.849 53.8 204.236 53.8H206.696C207.082 53.8 207.389 53.9267 207.616 54.18C207.842 54.4333 207.956 54.7733 207.956 55.2V59.22C207.956 59.4333 208.016 59.6 208.136 59.72C208.269 59.84 208.416 59.9533 208.576 60.06C208.736 60.1533 208.876 60.26 208.996 60.38C209.129 60.4867 209.196 60.6467 209.196 60.86V63.9C209.196 64.1133 209.129 64.28 208.996 64.4C208.876 64.52 208.736 64.6333 208.576 64.74C208.416 64.8333 208.269 64.94 208.136 65.06C208.016 65.1667 207.956 65.3267 207.956 65.54V70.16ZM197.296 61.22C197.456 60.7 197.456 60.18 197.296 59.66H196.696C196.856 60.18 196.856 60.7 196.696 61.22H197.296Z" fill="white"/>
    <g opacity="0.5">
        <path d="M65.0434 227.81C100.966 227.81 130.087 221.584 130.087 213.905C130.087 206.225 100.966 200 65.0434 200C29.1209 200 0 206.225 0 213.905C0 221.584 29.1209 227.81 65.0434 227.81Z" fill="#888888"/>
    </g>
    <path d="M56.0618 165.085C43.1031 165.071 32.587 175.565 32.5734 188.524C32.5598 201.483 43.0539 211.999 56.0126 212.012L115.669 212.075C128.628 212.088 139.144 201.594 139.157 188.635C139.171 175.677 128.677 165.161 115.718 165.147L56.0618 165.085Z" fill="#46BCB3"/>
    <path d="M1.12552 106.928L1.04914 179.864C1.022 205.781 22.0102 226.814 47.9276 226.841C73.845 226.868 94.8773 205.88 94.9044 179.962L94.9808 107.026C95.0079 81.1085 74.0197 60.0763 48.1023 60.0492C22.1849 60.022 1.15266 81.0102 1.12552 106.928Z" fill="#6ECEC9"/>
    <path d="M100.123 179.616H45.2008C32.2421 179.616 21.7369 190.121 21.7369 203.08C21.7369 216.039 32.2421 226.544 45.2008 226.544H100.123C113.081 226.544 123.586 216.039 123.586 203.08C123.586 190.121 113.081 179.616 100.123 179.616Z" fill="#6ECEC9"/>
    <path d="M69.1516 134.747L70.7161 134.749C77.3399 134.756 82.7151 129.392 82.722 122.768L82.7385 107.086C82.7454 100.462 77.3814 95.0871 70.7577 95.0802L69.1931 95.0786C62.5694 95.0716 57.1942 100.436 57.1872 107.059L57.1708 122.741C57.1639 129.365 62.5279 134.74 69.1516 134.747Z" fill="#EEEEEF"/>
    <path d="M43.5957 134.725L45.1602 134.727C51.784 134.734 57.1592 129.37 57.1661 122.746L57.1825 107.064C57.1895 100.44 51.8255 95.065 45.2018 95.0581L43.6372 95.0565C37.0135 95.0495 31.6383 100.413 31.6313 107.037L31.6149 122.719C31.608 129.343 36.972 134.718 43.5957 134.725Z" fill="#EEEEEF"/>
    <path d="M43.6546 111.303L43.6471 118.472C43.6432 122.208 46.6686 125.239 50.4047 125.243C54.1407 125.247 57.1725 122.222 57.1764 118.486L57.1839 111.317C57.1878 107.581 54.1623 104.549 50.4263 104.545C46.6903 104.541 43.6585 107.567 43.6546 111.303Z" fill="#46BCB3"/>
    <path d="M69.2081 111.331L69.2006 118.5C69.1967 122.236 72.2221 125.268 75.9581 125.272C79.6941 125.276 82.7259 122.25 82.7298 118.514L82.7373 111.345C82.7413 107.609 79.7158 104.577 75.9798 104.574C72.2438 104.57 69.212 107.595 69.2081 111.331Z" fill="#46BCB3"/>
    <path d="M79.8611 85.1643C80.2614 85.1643 80.6617 85.0335 81.0008 84.768C81.7892 84.1389 81.9199 82.9911 81.2908 82.1986C71.4134 69.7968 58.3866 65.8548 57.8392 65.6955C56.867 65.4095 55.858 65.9651 55.5721 66.9332C55.2862 67.9014 55.8417 68.9144 56.8057 69.2004C56.9324 69.2371 69.3056 73.0116 78.4314 84.4739C78.7908 84.9273 79.3219 85.1643 79.8611 85.1643Z" fill="#EEEEEF"/>
    <path d="M57.1807 132.901C57.1807 132.901 60.2076 190.286 69.9501 177.851C75.33 170.985 57.1807 132.901 57.1807 132.901Z" fill="#EEEEEF"/>
    <path d="M117.4 137.696C117.4 137.696 113.965 128.273 114.28 121.63C114.28 121.63 113.655 120.74 111.081 121.63V146.99L117.405 148.223V137.696H117.4Z" fill="#51F4E8"/>
    <path d="M114.416 134.38C114.416 134.38 112.602 130.932 112.255 121.635V121.32L111.082 121.635V132.268C94.4281 130.769 85.1226 137.631 82.1814 140.311C81.4952 140.936 81.1479 141.79 81.1479 142.713V175.07C81.1479 177.712 84.0809 179.216 86.2664 177.733C95.4003 171.54 106.405 169.404 111.458 168.713C113.072 168.493 114.24 167.1 114.24 165.47V135.597C114.24 135.229 114.154 134.874 114.036 134.539L114.412 134.384L114.416 134.38Z" fill="#CFFFFA"/>
    <path d="M82.7319 177.835L85.8651 179.931L88.6428 178.313V173.705H85.1175L82.7319 177.835Z" fill="#CFFFFA"/>
    <path d="M85.3433 142.415C88.2926 139.727 97.6471 132.811 114.416 134.38C116.091 134.535 117.406 136.018 117.406 137.701V167.57C117.406 169.2 116.238 170.597 114.624 170.813C109.571 171.503 98.5662 173.64 89.4323 179.833C87.2427 181.315 84.3138 179.812 84.3138 177.169V144.812C84.3138 143.889 84.6611 143.031 85.3473 142.411L85.3433 142.415Z" fill="#51F4E8"/>
    <path d="M47.5088 184.297C40.4868 184.297 34.1797 182.7 28.6242 179.489C7.35397 167.198 6.99858 136.585 6.99041 135.294C6.97407 130.634 10.7363 126.847 15.3849 126.831H15.4176C20.054 126.831 23.8121 130.568 23.8489 135.201C23.9061 141.381 26.402 158.775 37.1004 164.91C46.2057 170.172 61.1198 167.165 80.1433 156.283C84.1996 153.963 89.3385 155.376 91.6506 159.412C93.9626 163.452 92.5574 168.607 88.5215 170.919C72.9375 179.832 59.2162 184.297 47.5006 184.297H47.5088Z" fill="#46BCB3"/>
    <path d="M97.8714 83.1667C97.7161 83.1585 97.5487 83.1503 97.3934 83.1422C97.23 83.134 97.0626 83.1258 96.891 83.1013C96.4049 83.0686 96.0495 82.8889 95.8289 82.558C95.6083 82.2353 95.4899 81.835 95.4899 81.3652C95.4899 81.161 95.5144 80.969 95.5716 80.7729C95.6287 80.585 95.7104 80.4175 95.8248 80.2786C95.9392 80.1397 96.0781 80.0335 96.2619 79.9478C96.4457 79.862 96.65 79.8416 96.8869 79.8661C97.0585 79.8742 97.2178 79.8906 97.373 79.8987C97.5364 79.9069 97.6957 79.9232 97.851 79.9314C97.8591 79.7598 97.8755 79.5924 97.8836 79.4208C97.8918 79.2411 97.9081 79.0654 97.9326 78.8857C97.9653 78.3914 98.1451 78.036 98.476 77.8236C98.7987 77.6112 99.199 77.5009 99.6687 77.5009C99.873 77.5009 100.065 77.5254 100.261 77.5744C100.449 77.6234 100.616 77.7051 100.755 77.8195C100.894 77.9339 101 78.0728 101.086 78.2484C101.172 78.4241 101.192 78.6365 101.168 78.8816C101.152 79.0695 101.135 79.2533 101.127 79.4331C101.119 79.6046 101.111 79.7803 101.103 79.9437C101.274 79.9355 101.442 79.9192 101.613 79.911C101.777 79.9028 101.952 79.8865 102.132 79.862C102.377 79.8375 102.594 79.862 102.765 79.9437C102.937 80.0254 103.088 80.1316 103.202 80.2746C103.317 80.4175 103.406 80.5809 103.464 80.7688C103.521 80.9649 103.545 81.1569 103.545 81.3611C103.545 81.8309 103.431 82.2353 103.206 82.5539C102.986 82.8848 102.614 83.0646 102.112 83.0972C101.932 83.1217 101.756 83.1299 101.601 83.1381C101.438 83.1463 101.27 83.1544 101.098 83.1626C101.107 83.3178 101.115 83.4771 101.123 83.6405C101.131 83.7958 101.147 83.9551 101.164 84.1266C101.188 84.3717 101.164 84.5882 101.082 84.7598C101 84.9314 100.894 85.0825 100.751 85.1969C100.608 85.3113 100.445 85.4011 100.257 85.4583C100.061 85.5155 99.8689 85.54 99.6647 85.54C99.1949 85.54 98.7905 85.4256 98.4719 85.201C98.141 84.9804 97.9613 84.6087 97.9286 84.1062C97.9041 83.951 97.8959 83.7917 97.8877 83.6364C97.8795 83.4731 97.8714 83.3137 97.8632 83.1585L97.8714 83.1667Z" fill="#51F4E8"/>
    <path d="M115.787 96.7696C115.632 96.7614 115.465 96.7532 115.309 96.7451C115.146 96.7369 114.978 96.7287 114.807 96.7042C114.321 96.6716 113.965 96.4918 113.745 96.1609C113.524 95.8382 113.406 95.4379 113.406 94.9681C113.406 94.7639 113.43 94.5719 113.487 94.3758C113.545 94.1879 113.626 94.0204 113.741 93.8815C113.855 93.7427 113.994 93.6364 114.178 93.5507C114.362 93.4649 114.566 93.4445 114.803 93.469C114.974 93.4771 115.134 93.4935 115.289 93.5016C115.452 93.5098 115.612 93.5262 115.767 93.5343C115.775 93.3628 115.791 93.1953 115.8 93.0237C115.808 92.844 115.824 92.6683 115.849 92.4886C115.881 91.9943 116.061 91.6389 116.392 91.4265C116.715 91.2141 117.115 91.1038 117.585 91.1038C117.789 91.1038 117.981 91.1283 118.177 91.1773C118.365 91.2263 118.532 91.308 118.671 91.4224C118.81 91.5368 118.916 91.6757 119.002 91.8513C119.088 92.027 119.108 92.2394 119.084 92.4845C119.067 92.6724 119.051 92.8562 119.043 93.036C119.035 93.2075 119.027 93.3832 119.018 93.5466C119.19 93.5384 119.357 93.5221 119.529 93.5139C119.692 93.5057 119.868 93.4894 120.048 93.4649C120.293 93.4404 120.509 93.4649 120.681 93.5466C120.853 93.6283 121.004 93.7345 121.118 93.8775C121.232 94.0204 121.322 94.1838 121.38 94.3717C121.437 94.5678 121.461 94.7598 121.461 94.964C121.461 95.4338 121.347 95.8382 121.122 96.1568C120.902 96.4877 120.53 96.6675 120.027 96.7001C119.848 96.7247 119.672 96.7328 119.517 96.741C119.353 96.7492 119.186 96.7573 119.014 96.7655C119.023 96.9207 119.031 97.08 119.039 97.2434C119.047 97.3987 119.063 97.558 119.08 97.7295C119.104 97.9746 119.08 98.1911 118.998 98.3627C118.916 98.5343 118.81 98.6854 118.667 98.7998C118.524 98.9142 118.361 99.004 118.173 99.0612C117.977 99.1184 117.785 99.1429 117.581 99.1429C117.111 99.1429 116.706 99.0286 116.388 98.8039C116.057 98.5833 115.877 98.2116 115.844 97.7091C115.82 97.5539 115.812 97.3946 115.804 97.2394C115.795 97.076 115.787 96.9166 115.779 96.7614L115.787 96.7696Z" fill="#51F4E8"/>
    <path d="M107.618 87.8399C107.132 87.8072 106.777 87.6275 106.556 87.3047C106.336 86.9739 106.217 86.5817 106.217 86.1038C106.217 85.9077 106.242 85.7075 106.299 85.5196C106.356 85.3236 106.438 85.1561 106.552 85.0172C106.666 84.8783 106.805 84.7721 106.989 84.6863C107.169 84.6128 107.377 84.5801 107.614 84.6046C108.545 84.6863 109.424 84.7272 110.241 84.7272C111.058 84.7353 111.928 84.6945 112.859 84.6046C113.104 84.5801 113.321 84.6128 113.492 84.6863C113.664 84.768 113.815 84.8742 113.929 85.0172C114.044 85.1602 114.134 85.3236 114.191 85.5196C114.248 85.7075 114.273 85.9077 114.273 86.1038C114.273 86.5817 114.158 86.9779 113.933 87.3047C113.713 87.6275 113.341 87.8072 112.839 87.8399C112.377 87.8725 111.932 87.9052 111.507 87.9297C111.078 87.9461 110.657 87.9624 110.241 87.9624C109.824 87.9624 109.391 87.9461 108.966 87.9297C108.537 87.9052 108.084 87.8725 107.618 87.8399Z" fill="#51F4E8"/>
    <path d="M100.922 120.131C100.436 120.099 100.081 119.919 99.8599 119.596C99.6393 119.265 99.5209 118.873 99.5209 118.395C99.5209 118.199 99.5454 117.999 99.6026 117.811C99.6598 117.615 99.7415 117.447 99.8558 117.309C99.9702 117.17 100.109 117.063 100.293 116.978C100.473 116.904 100.681 116.871 100.918 116.896C101.849 116.978 102.728 117.018 103.545 117.018C104.362 117.027 105.232 116.986 106.163 116.896C106.408 116.871 106.625 116.904 106.796 116.978C106.968 117.059 107.119 117.166 107.233 117.309C107.348 117.451 107.437 117.615 107.495 117.811C107.552 117.999 107.576 118.199 107.576 118.395C107.576 118.873 107.462 119.269 107.237 119.596C107.017 119.919 106.645 120.099 106.143 120.131C105.681 120.164 105.236 120.197 104.811 120.221C104.382 120.237 103.961 120.254 103.545 120.254C103.128 120.254 102.695 120.237 102.27 120.221C101.841 120.197 101.388 120.164 100.922 120.131Z" fill="#51F4E8"/>
    <path d="M107.835 109.694C107.704 109.564 107.581 109.433 107.455 109.302C107.332 109.171 107.201 109.041 107.075 108.91C106.736 108.555 106.597 108.183 106.666 107.774C106.736 107.374 106.944 106.994 107.291 106.639C107.447 106.483 107.614 106.361 107.794 106.259C107.974 106.157 108.166 106.095 108.366 106.075C108.558 106.05 108.758 106.067 108.938 106.136C109.13 106.198 109.309 106.328 109.493 106.516L110.257 107.28C110.388 107.149 110.51 107.019 110.621 106.9C110.735 106.769 110.853 106.647 110.984 106.52C111.156 106.328 111.348 106.198 111.54 106.128C111.74 106.059 111.932 106.034 112.128 106.059C112.328 106.075 112.508 106.136 112.7 106.242C112.884 106.345 113.047 106.467 113.202 106.622C113.549 106.978 113.75 107.349 113.827 107.75C113.897 108.15 113.75 108.538 113.394 108.914C113.264 109.045 113.141 109.175 113.022 109.294C112.908 109.425 112.781 109.547 112.651 109.674C112.781 109.805 112.912 109.935 113.031 110.046C113.161 110.168 113.284 110.287 113.423 110.417C113.607 110.601 113.733 110.781 113.803 110.981C113.864 111.173 113.88 111.373 113.864 111.561C113.839 111.761 113.778 111.941 113.672 112.125C113.578 112.296 113.447 112.472 113.292 112.619C112.953 112.974 112.581 113.183 112.173 113.252C111.772 113.313 111.376 113.175 110.984 112.836C110.853 112.705 110.723 112.574 110.604 112.464C110.482 112.341 110.363 112.231 110.241 112.108C110.11 112.231 109.987 112.341 109.869 112.464C109.746 112.578 109.628 112.705 109.497 112.836C109.134 113.175 108.741 113.313 108.341 113.244C107.933 113.175 107.561 112.966 107.222 112.619C107.067 112.472 106.936 112.296 106.842 112.125C106.74 111.941 106.679 111.761 106.642 111.561C106.617 111.369 106.634 111.169 106.703 110.981C106.781 110.781 106.903 110.601 107.075 110.417C107.206 110.287 107.336 110.164 107.455 110.046C107.585 109.931 107.708 109.813 107.835 109.69V109.694Z" fill="#51F4E8"/>
    <path d="M115.489 77.5376C115.358 77.4069 115.235 77.2762 115.109 77.1455C114.986 77.0148 114.856 76.884 114.729 76.7533C114.39 76.3979 114.251 76.0262 114.32 75.6177C114.39 75.2174 114.598 74.8375 114.945 74.4821C115.101 74.3269 115.268 74.2043 115.448 74.1022C115.632 74.0001 115.82 73.9388 116.02 73.9184C116.212 73.8939 116.412 73.9102 116.592 73.9797C116.784 74.0409 116.963 74.1717 117.147 74.3596L117.911 75.1234C118.042 74.9927 118.164 74.862 118.275 74.7435C118.389 74.6128 118.507 74.4903 118.638 74.3636C118.81 74.1717 119.002 74.0409 119.194 73.9715C119.394 73.902 119.586 73.8775 119.782 73.902C119.982 73.9184 120.162 73.9797 120.354 74.0859C120.538 74.188 120.701 74.3105 120.856 74.4658C121.203 74.8212 121.404 75.1929 121.481 75.5932C121.551 75.9935 121.404 76.3816 121.048 76.7574C120.918 76.8881 120.795 77.0188 120.677 77.1373C120.562 77.268 120.436 77.3906 120.305 77.5172C120.436 77.6479 120.566 77.7786 120.685 77.8889C120.815 78.0115 120.938 78.1299 121.077 78.2607C121.261 78.4445 121.387 78.6242 121.457 78.8244C121.518 79.0164 121.534 79.2165 121.518 79.4044C121.494 79.6046 121.432 79.7843 121.326 79.9682C121.232 80.1397 121.101 80.3154 120.946 80.4624C120.607 80.8178 120.235 81.0262 119.827 81.0956C119.427 81.1569 119.03 81.018 118.638 80.6789C118.507 80.5482 118.377 80.4175 118.258 80.3072C118.136 80.1847 118.017 80.0744 117.895 79.9518C117.764 80.0744 117.641 80.1847 117.523 80.3072C117.4 80.4216 117.282 80.5482 117.151 80.6789C116.788 81.018 116.396 81.1569 115.995 81.0874C115.587 81.018 115.215 80.8097 114.876 80.4624C114.721 80.3154 114.59 80.1397 114.496 79.9682C114.394 79.7843 114.333 79.6046 114.296 79.4044C114.271 79.2125 114.288 79.0123 114.357 78.8244C114.435 78.6242 114.557 78.4445 114.729 78.2607C114.86 78.1299 114.99 78.0074 115.109 77.8889C115.239 77.7746 115.362 77.6561 115.489 77.5335V77.5376Z" fill="#51F4E8"/>
    <path d="M101.458 99.2083C101.025 98.9918 100.772 98.6936 100.702 98.3137C100.629 97.9419 100.686 97.5375 100.861 97.1127C100.939 96.9248 101.037 96.7573 101.16 96.6062C101.274 96.455 101.413 96.3366 101.564 96.2508C101.723 96.1691 101.891 96.116 102.083 96.116C102.271 96.1078 102.467 96.1609 102.683 96.2712C103.1 96.4877 103.537 96.7001 104.007 96.9207C104.468 97.1331 104.95 97.3496 105.432 97.5539C105.923 97.7581 106.405 97.9501 106.895 98.138C107.377 98.3218 107.847 98.4812 108.288 98.616C108.517 98.6936 108.7 98.7998 108.835 98.9428C108.97 99.0776 109.056 99.2369 109.105 99.4044C109.158 99.5759 109.17 99.7556 109.15 99.9476C109.129 100.14 109.076 100.328 108.999 100.515C108.823 100.94 108.566 101.263 108.243 101.467C107.916 101.68 107.512 101.704 107.046 101.545C106.617 101.402 106.16 101.234 105.673 101.059C105.179 100.879 104.697 100.687 104.207 100.483C103.721 100.279 103.239 100.07 102.781 99.8496C102.312 99.629 101.874 99.4166 101.454 99.2083H101.458ZM104.37 94.4003C104.64 93.759 105.036 93.3301 105.571 93.1176C106.098 92.9011 106.67 92.9216 107.283 93.1748C107.9 93.4322 108.325 93.8284 108.533 94.3554C108.741 94.8823 108.717 95.4665 108.447 96.1078C108.337 96.3692 108.182 96.5939 107.986 96.7737C107.789 96.9534 107.565 97.0882 107.316 97.1781C107.062 97.2638 106.793 97.3006 106.507 97.2884C106.217 97.272 105.927 97.2026 105.645 97.0841C105.355 96.9616 105.097 96.8022 104.889 96.6103C104.673 96.4142 104.509 96.1977 104.399 95.9608C104.28 95.7197 104.219 95.4665 104.211 95.1969C104.211 94.9314 104.26 94.6658 104.366 94.4044L104.37 94.4003ZM101.135 102.141C101.405 101.5 101.801 101.071 102.34 100.85C102.867 100.634 103.443 100.646 104.052 100.899C104.669 101.157 105.089 101.561 105.298 102.088C105.506 102.619 105.477 103.207 105.212 103.849C105.102 104.11 104.946 104.335 104.75 104.515C104.554 104.694 104.329 104.829 104.084 104.911C103.831 104.988 103.562 105.025 103.28 105.013C102.99 104.997 102.7 104.935 102.414 104.817C102.124 104.694 101.87 104.527 101.662 104.335C101.446 104.139 101.282 103.922 101.168 103.689C101.045 103.457 100.988 103.203 100.976 102.934C100.976 102.668 101.025 102.403 101.131 102.141H101.135Z" fill="#51F4E8"/>
    <path d="M105.228 72.8931C104.758 73.0197 104.374 72.9625 104.068 72.7215C103.77 72.4886 103.541 72.1496 103.394 71.7125C103.329 71.5205 103.292 71.3285 103.284 71.1365C103.271 70.9445 103.296 70.7648 103.349 70.6014C103.41 70.4339 103.504 70.2828 103.651 70.1562C103.786 70.0254 103.97 69.9356 104.203 69.8743C104.66 69.764 105.126 69.6292 105.624 69.4862C106.111 69.3392 106.613 69.1839 107.111 69.0165C107.618 68.8449 108.104 68.6733 108.594 68.4895C109.08 68.3098 109.534 68.1178 109.954 67.9258C110.179 67.8318 110.387 67.7869 110.579 67.8073C110.771 67.8196 110.939 67.8808 111.09 67.9748C111.241 68.0688 111.368 68.1954 111.482 68.3547C111.597 68.514 111.682 68.6897 111.744 68.8817C111.891 69.3187 111.911 69.7272 111.805 70.099C111.703 70.4748 111.413 70.7607 110.959 70.9486C110.543 71.1243 110.089 71.304 109.607 71.4919C109.117 71.6839 108.631 71.8555 108.124 72.027C107.626 72.1945 107.128 72.3579 106.637 72.4968C106.139 72.6398 105.673 72.7746 105.22 72.8931H105.228ZM104.231 67.3621C104.007 66.7044 104.023 66.1202 104.285 65.6055C104.538 65.0949 104.979 64.7314 105.604 64.5189C106.241 64.3024 106.817 64.3229 107.32 64.5761C107.826 64.8335 108.194 65.2869 108.414 65.9446C108.504 66.2142 108.537 66.4838 108.508 66.7493C108.48 67.0148 108.402 67.264 108.276 67.4928C108.141 67.7256 107.965 67.9299 107.74 68.1096C107.512 68.2893 107.25 68.4282 106.96 68.5263C106.662 68.6284 106.364 68.6774 106.078 68.6692C105.788 68.6692 105.522 68.612 105.281 68.5058C105.032 68.4037 104.82 68.2526 104.636 68.0606C104.46 67.8645 104.321 67.6317 104.227 67.3621H104.231ZM106.923 75.3072C106.699 74.6496 106.715 74.0654 106.972 73.5426C107.226 73.0319 107.663 72.6602 108.292 72.4478C108.929 72.2313 109.509 72.2558 110.012 72.5132C110.518 72.7746 110.886 73.2321 111.11 73.8898C111.2 74.1594 111.233 74.429 111.204 74.6945C111.176 74.96 111.098 75.2092 110.967 75.4298C110.829 75.6545 110.653 75.8587 110.432 76.0384C110.204 76.2182 109.946 76.3652 109.656 76.4633C109.358 76.5654 109.056 76.6063 108.774 76.6022C108.484 76.6022 108.218 76.545 107.977 76.4469C107.732 76.353 107.52 76.2018 107.332 76.0099C107.156 75.8138 107.017 75.5809 106.923 75.3113V75.3072Z" fill="#51F4E8"/>
</svg>
